<svg xmlns="http://www.w3.org/2000/svg" xmlns:xlink="http://www.w3.org/1999/xlink" width="500" zoomAndPan="magnify" viewBox="0 0 375 374.999991" height="500" preserveAspectRatio="xMidYMid meet" version="1.0"><defs><clipPath id="776b49cf17"><path d="M 62.203125 130.175781 L 132.773438 130.175781 L 132.773438 241.960938 L 62.203125 241.960938 Z M 62.203125 130.175781 " clip-rule="nonzero"/></clipPath><clipPath id="95b348bdd3"><path d="M 13.636719 135.707031 L 57.996094 135.707031 L 57.996094 243.792969 L 13.636719 243.792969 Z M 13.636719 135.707031 " clip-rule="nonzero"/></clipPath></defs><path fill="#f2eddb" d="M 149.101562 177.429688 L 149.101562 168.898438 L 151.714844 168.898438 L 151.714844 145.457031 L 149.101562 145.457031 L 149.101562 136.929688 L 168.890625 136.929688 L 168.890625 145.457031 L 166.277344 145.457031 L 166.277344 168.898438 L 168.890625 168.898438 L 168.890625 177.429688 Z M 149.101562 177.429688 " fill-opacity="1" fill-rule="nonzero"/><path fill="#f2eddb" d="M 203.148438 136.929688 L 220.210938 136.929688 L 220.210938 145.457031 L 217.613281 145.457031 L 217.613281 177.429688 L 202.984375 177.429688 L 187.730469 153.957031 L 187.730469 168.898438 L 190.226562 168.898438 L 190.226562 177.429688 L 173.148438 177.429688 L 173.148438 168.898438 L 175.761719 168.898438 L 175.761719 145.457031 L 173.148438 145.457031 L 173.148438 136.929688 L 191.953125 136.929688 L 205.644531 157.804688 L 205.644531 145.457031 L 203.148438 145.457031 Z M 203.148438 136.929688 " fill-opacity="1" fill-rule="nonzero"/><path fill="#f2eddb" d="M 240.507812 178.152344 C 237.175781 178.152344 234.023438 177.867188 231.054688 177.296875 C 228.097656 176.730469 225.816406 176.078125 224.21875 175.34375 L 224.21875 165.035156 L 235.675781 165.035156 C 235.675781 166.113281 235.914062 166.894531 236.398438 167.386719 C 236.878906 167.871094 237.761719 168.109375 239.042969 168.109375 C 240.128906 168.109375 240.902344 167.945312 241.363281 167.617188 C 241.832031 167.289062 242.070312 166.792969 242.070312 166.136719 C 242.070312 165.578125 241.84375 165.101562 241.394531 164.707031 C 240.941406 164.304688 240.164062 163.894531 239.042969 163.472656 L 234.574219 161.914062 C 230.726562 160.457031 227.957031 158.742188 226.273438 156.769531 C 224.582031 154.789062 223.742188 152.113281 223.742188 148.746094 C 223.742188 144.648438 225.082031 141.539062 227.769531 139.410156 C 230.464844 137.273438 234.953125 136.203125 241.230469 136.203125 C 244.253906 136.203125 247.089844 136.511719 249.746094 137.125 C 252.410156 137.730469 254.550781 138.53125 256.171875 139.523438 L 256.171875 148.84375 L 245.765625 148.84375 C 245.765625 147.113281 244.691406 146.246094 242.546875 146.246094 C 241.5 146.246094 240.761719 146.378906 240.328125 146.640625 C 239.886719 146.898438 239.667969 147.359375 239.667969 148.023438 C 239.667969 148.605469 239.917969 149.070312 240.425781 149.421875 C 240.925781 149.773438 241.757812 150.140625 242.90625 150.523438 L 247.425781 152.082031 C 251.109375 153.332031 253.789062 154.957031 255.464844 156.949219 C 257.152344 158.945312 257.996094 161.550781 257.996094 164.773438 C 257.996094 169.191406 256.507812 172.527344 253.542969 174.785156 C 250.582031 177.03125 246.234375 178.152344 240.507812 178.152344 Z M 240.507812 178.152344 " fill-opacity="1" fill-rule="nonzero"/><path fill="#f2eddb" d="M 300.476562 149.519531 L 291.515625 149.519531 L 291.515625 145.457031 L 288.195312 145.457031 L 288.195312 168.898438 L 291.828125 168.898438 L 291.828125 177.429688 L 269.96875 177.429688 L 269.96875 168.898438 L 273.617188 168.898438 L 273.617188 145.457031 L 270.28125 145.457031 L 270.28125 149.519531 L 261.320312 149.519531 L 261.320312 136.929688 L 300.476562 136.929688 Z M 300.476562 149.519531 " fill-opacity="1" fill-rule="nonzero"/><path fill="#f2eddb" d="M 342.636719 168.898438 L 344.722656 168.898438 L 344.722656 177.429688 L 324.308594 177.429688 L 324.308594 168.898438 L 327.429688 168.898438 L 326.59375 164.722656 L 319.523438 164.722656 L 318.6875 168.898438 L 321.808594 168.898438 L 321.808594 177.429688 L 304.007812 177.429688 L 304.007812 168.898438 L 306.09375 168.898438 L 314.890625 136.929688 L 333.839844 136.929688 Z M 320.660156 159.21875 L 325.457031 159.21875 L 323.320312 148.84375 L 322.796875 148.84375 Z M 320.660156 159.21875 " fill-opacity="1" fill-rule="nonzero"/><path stroke-linecap="butt" transform="matrix(0.92918, 0, 0, 0.92918, 141.803755, 134.74105)" fill="none" stroke-linejoin="miter" d="M 6.29015 47.001663 L 6.29015 37.80757 L 9.098405 37.80757 L 9.098405 12.596333 L 6.29015 12.596333 L 6.29015 3.402239 L 27.579079 3.402239 L 27.579079 12.596333 L 24.787639 12.596333 L 24.787639 37.80757 L 27.579079 37.80757 L 27.579079 47.001663 Z M 64.443734 3.402239 L 82.827717 3.402239 L 82.827717 12.596333 L 80.023665 12.596333 L 80.023665 47.001663 L 64.279779 47.001663 L 47.863257 21.735774 L 47.863257 37.80757 L 50.545393 37.80757 L 50.545393 47.001663 L 32.174023 47.001663 L 32.174023 37.80757 L 34.978074 37.80757 L 34.978074 12.596333 L 32.174023 12.596333 L 32.174023 3.402239 L 52.407754 3.402239 L 67.138482 25.876689 L 67.138482 12.596333 L 64.443734 12.596333 Z M 104.667366 47.779398 C 101.072968 47.779398 97.68036 47.472508 94.489543 46.862932 C 91.298726 46.244948 88.843605 45.53868 87.132587 44.75674 L 87.132587 33.662451 L 99.454437 33.662451 C 99.454437 34.818544 99.715084 35.663543 100.236377 36.193244 C 100.753465 36.714536 101.707768 36.975183 103.095079 36.975183 C 104.251173 36.975183 105.08356 36.798616 105.583833 36.437074 C 106.096718 36.08394 106.348956 35.550035 106.348956 34.839564 C 106.348956 34.246803 106.105125 33.738122 105.609056 33.309317 C 105.125599 32.867899 104.289008 32.426482 103.095079 31.980861 L 98.277324 30.295067 C 94.128001 28.731188 91.147383 26.881439 89.33547 24.758432 C 87.523556 22.622813 86.623906 19.747294 86.623906 16.127671 C 86.623906 11.721906 88.070073 8.367134 90.962408 6.071764 C 93.858947 3.772189 98.689314 2.624504 105.445101 2.624504 C 108.69057 2.624504 111.742656 2.952414 114.597155 3.608234 C 117.460062 4.255646 119.776452 5.121665 121.533713 6.210495 L 121.533713 16.236975 L 110.313304 16.236975 C 110.313304 14.374614 109.157211 13.445535 106.845025 13.445535 C 105.726768 13.445535 104.93642 13.588471 104.461371 13.870137 C 103.99473 14.143395 103.763511 14.63526 103.763511 15.345732 C 103.763511 15.976328 104.03677 16.476601 104.570675 16.850755 C 105.117191 17.224909 106.008434 17.615879 107.235995 18.027868 L 112.104198 19.709458 C 116.07275 21.063138 118.960881 22.807788 120.764386 24.964427 C 122.584707 27.108454 123.488562 29.916709 123.488562 33.389192 C 123.488562 38.131276 121.895255 41.713063 118.700234 44.14296 C 115.513621 46.568654 110.834597 47.779398 104.667366 47.779398 Z M 169.206788 16.976874 L 159.558666 16.976874 L 159.558666 12.596333 L 155.976879 12.596333 L 155.976879 37.80757 L 159.903392 37.80757 L 159.903392 47.001663 L 136.365337 47.001663 L 136.365337 37.80757 L 140.287645 37.80757 L 140.287645 12.596333 L 136.705859 12.596333 L 136.705859 16.976874 L 127.057736 16.976874 L 127.057736 3.402239 L 169.206788 3.402239 Z M 214.567677 37.80757 L 216.8126 37.80757 L 216.8126 47.001663 L 194.855239 47.001663 L 194.855239 37.80757 L 198.210011 37.80757 L 197.314565 33.334541 L 189.701166 33.334541 L 188.797311 37.80757 L 192.160491 37.80757 L 192.160491 47.001663 L 172.99457 47.001663 L 172.99457 37.80757 L 175.239492 37.80757 L 184.706844 3.402239 L 205.100326 3.402239 Z M 190.928727 27.385916 L 196.087004 27.385916 L 193.78743 16.236975 L 193.228301 16.236975 Z M 190.928727 27.385916 " stroke="#b76e22" stroke-width="1.296" stroke-opacity="1" stroke-miterlimit="4"/><path fill="#f2eddb" d="M 164.527344 230.1875 C 157.972656 230.1875 152.914062 228.523438 149.355469 225.191406 C 145.792969 221.863281 144.011719 216.535156 144.011719 209.214844 C 144.011719 195.234375 150.816406 188.238281 164.429688 188.238281 C 167.722656 188.238281 170.789062 188.640625 173.617188 189.4375 C 176.445312 190.226562 178.550781 191.109375 179.945312 192.085938 L 179.945312 205.105469 L 167.4375 205.105469 L 167.4375 201.355469 C 167.4375 200.03125 167.140625 199.054688 166.546875 198.429688 C 165.964844 197.804688 165.085938 197.492188 163.902344 197.492188 C 162.71875 197.492188 161.832031 197.804688 161.238281 198.429688 C 160.65625 199.054688 160.367188 200.03125 160.367188 201.355469 L 160.367188 217.070312 C 160.367188 218.398438 160.65625 219.371094 161.238281 219.996094 C 161.832031 220.621094 162.71875 220.933594 163.902344 220.933594 C 165.085938 220.933594 165.964844 220.621094 166.546875 219.996094 C 167.140625 219.371094 167.4375 218.398438 167.4375 217.070312 L 167.4375 212.863281 L 179.945312 212.863281 L 179.945312 226.339844 C 178.519531 227.320312 176.410156 228.207031 173.617188 229.003906 C 170.824219 229.792969 167.789062 230.1875 164.527344 230.1875 Z M 164.527344 230.1875 " fill-opacity="1" fill-rule="nonzero"/><path fill="#f2eddb" d="M 222.308594 220.933594 L 224.394531 220.933594 L 224.394531 229.464844 L 203.980469 229.464844 L 203.980469 220.933594 L 207.105469 220.933594 L 206.265625 216.757812 L 199.199219 216.757812 L 198.359375 220.933594 L 201.480469 220.933594 L 201.480469 229.464844 L 183.679688 229.464844 L 183.679688 220.933594 L 185.769531 220.933594 L 194.5625 188.960938 L 213.515625 188.960938 Z M 200.332031 211.25 L 205.132812 211.25 L 202.996094 200.878906 L 202.46875 200.878906 Z M 200.332031 211.25 " fill-opacity="1" fill-rule="nonzero"/><path fill="#f2eddb" d="M 228.230469 220.933594 L 230.84375 220.933594 L 230.84375 197.492188 L 228.230469 197.492188 L 228.230469 188.960938 L 252.128906 188.960938 C 256.609375 188.960938 260.027344 189.882812 262.386719 191.722656 C 264.742188 193.566406 265.921875 196.550781 265.921875 200.683594 C 265.921875 203.007812 265.449219 205.015625 264.507812 206.714844 C 263.574219 208.414062 262.242188 209.589844 260.511719 210.25 L 260.5625 210.773438 C 263.890625 211.300781 265.558594 213.351562 265.558594 216.921875 L 265.558594 220.933594 L 268.007812 220.933594 L 268.007812 229.464844 L 251.503906 229.464844 L 251.503906 217.234375 C 251.503906 215.878906 251.300781 214.851562 250.898438 214.160156 C 250.503906 213.46875 249.878906 213.007812 249.023438 212.761719 C 248.175781 212.511719 246.972656 212.386719 245.40625 212.386719 L 245.40625 220.933594 L 248.84375 220.933594 L 248.84375 229.464844 L 228.230469 229.464844 Z M 248.21875 206.039062 C 249.222656 206.039062 249.980469 205.773438 250.484375 205.234375 C 250.988281 204.699219 251.242188 203.855469 251.242188 202.703125 L 251.242188 200.828125 C 251.242188 199.691406 250.988281 198.851562 250.484375 198.316406 C 249.980469 197.769531 249.222656 197.492188 248.21875 197.492188 L 245.40625 197.492188 L 245.40625 206.039062 Z M 248.21875 206.039062 " fill-opacity="1" fill-rule="nonzero"/><path fill="#f2eddb" d="M 272.054688 220.933594 L 274.667969 220.933594 L 274.667969 197.558594 L 272.054688 197.558594 L 272.054688 188.960938 L 293.195312 188.960938 C 298.988281 188.960938 303.597656 190.550781 307.019531 193.730469 C 310.4375 196.910156 312.144531 202.070312 312.144531 209.214844 C 312.144531 216.359375 310.4375 221.519531 307.019531 224.695312 C 303.597656 227.878906 298.988281 229.464844 293.195312 229.464844 L 272.054688 229.464844 Z M 292.257812 220.933594 C 293.441406 220.933594 294.320312 220.621094 294.902344 219.996094 C 295.496094 219.371094 295.789062 218.398438 295.789062 217.070312 L 295.789062 201.355469 C 295.789062 198.785156 294.613281 197.492188 292.257812 197.492188 L 289.230469 197.492188 L 289.230469 220.933594 Z M 292.257812 220.933594 " fill-opacity="1" fill-rule="nonzero"/><path fill="#f2eddb" d="M 332.230469 230.1875 C 328.898438 230.1875 325.746094 229.898438 322.777344 229.332031 C 319.820312 228.765625 317.539062 228.113281 315.941406 227.375 L 315.941406 217.070312 L 327.398438 217.070312 C 327.398438 218.148438 327.636719 218.925781 328.121094 219.421875 C 328.601562 219.90625 329.484375 220.144531 330.769531 220.144531 C 331.851562 220.144531 332.625 219.980469 333.085938 219.652344 C 333.554688 219.320312 333.792969 218.828125 333.792969 218.171875 C 333.792969 217.613281 333.566406 217.136719 333.117188 216.742188 C 332.667969 216.339844 331.886719 215.925781 330.769531 215.507812 L 326.296875 213.945312 C 322.449219 212.492188 319.679688 210.773438 317.996094 208.800781 C 316.308594 206.820312 315.464844 204.144531 315.464844 200.78125 C 315.464844 196.683594 316.804688 193.574219 319.492188 191.445312 C 322.1875 189.308594 326.675781 188.238281 332.953125 188.238281 C 335.980469 188.238281 338.8125 188.546875 341.46875 189.160156 C 344.132812 189.761719 346.273438 190.566406 347.894531 191.558594 L 347.894531 200.878906 L 337.492188 200.878906 C 337.492188 199.148438 336.414062 198.28125 334.269531 198.28125 C 333.226562 198.28125 332.484375 198.414062 332.050781 198.675781 C 331.609375 198.929688 331.390625 199.390625 331.390625 200.058594 C 331.390625 200.640625 331.644531 201.105469 332.148438 201.453125 C 332.648438 201.808594 333.480469 202.171875 334.628906 202.554688 L 339.152344 204.117188 C 342.832031 205.367188 345.511719 206.988281 347.1875 208.984375 C 348.875 210.980469 349.71875 213.585938 349.71875 216.808594 C 349.71875 221.226562 348.234375 224.5625 345.265625 226.816406 C 342.308594 229.066406 337.960938 230.1875 332.230469 230.1875 Z M 332.230469 230.1875 " fill-opacity="1" fill-rule="nonzero"/><path stroke-linecap="butt" transform="matrix(0.92918, 0, 0, 0.92918, 141.803755, 134.74105)" fill="none" stroke-linejoin="miter" d="M 22.887443 103.780548 C 15.828969 103.780548 10.384821 101.985451 6.555 98.403664 C 2.725179 94.821877 0.812371 89.09186 0.812371 81.209407 C 0.812371 66.154973 8.135695 58.62145 22.778139 58.62145 C 26.326294 58.62145 29.626414 59.050255 32.665888 59.907866 C 35.71377 60.769681 37.98812 61.723983 39.484735 62.770773 L 39.484735 76.778417 L 26.032016 76.778417 L 26.032016 72.738397 C 26.032016 71.330066 25.716718 70.283276 25.077714 69.606436 C 24.438709 68.938004 23.488611 68.597482 22.219011 68.597482 C 20.953614 68.597482 19.995108 68.938004 19.360308 69.606436 C 18.725508 70.283276 18.401801 71.330066 18.401801 72.738397 L 18.401801 89.6636 C 18.401801 91.084544 18.725508 92.131333 19.360308 92.808173 C 19.995108 93.472401 20.953614 93.808719 22.219011 93.808719 C 23.488611 93.808719 24.438709 93.472401 25.077714 92.808173 C 25.716718 92.131333 26.032016 91.084544 26.032016 89.6636 L 26.032016 85.123307 L 39.484735 85.123307 L 39.484735 99.631225 C 37.950285 100.686422 35.680138 101.636521 32.665888 102.494131 C 29.660046 103.351742 26.401966 103.780548 22.887443 103.780548 Z M 85.072639 93.808719 L 87.313358 93.808719 L 87.313358 102.998608 L 65.360201 102.998608 L 65.360201 93.808719 L 68.706565 93.808719 L 67.819526 89.331486 L 60.201924 89.331486 L 59.298069 93.808719 L 62.661249 93.808719 L 62.661249 102.998608 L 43.499531 102.998608 L 43.499531 93.808719 L 45.74025 93.808719 L 55.211806 59.403389 L 75.601084 59.403389 Z M 61.433688 83.382862 L 66.587762 83.382862 L 64.288187 72.23392 L 63.733263 72.23392 Z M 91.454273 93.808719 L 94.258324 93.808719 L 94.258324 68.597482 L 91.454273 68.597482 L 91.454273 59.403389 L 117.169987 59.403389 C 121.983539 59.403389 125.657813 60.391323 128.197013 62.371395 C 130.740418 64.351467 132.014223 67.563304 132.014223 72.019518 C 132.014223 74.516679 131.505542 76.681726 130.492384 78.514659 C 129.491838 80.347592 128.054078 81.621396 126.183309 82.331868 L 126.254777 82.895201 C 129.836564 83.445921 131.627457 85.648804 131.627457 89.495441 L 131.627457 93.808719 L 134.254941 93.808719 L 134.254941 102.998608 L 116.497351 102.998608 L 116.497351 89.827555 C 116.497351 88.377184 116.287153 87.275742 115.858347 86.527435 C 115.429542 85.783331 114.752702 85.283058 113.832031 85.026616 C 112.919769 84.761765 111.624944 84.627238 109.947558 84.627238 L 109.947558 93.808719 L 113.642852 93.808719 L 113.642852 102.998608 L 91.454273 102.998608 Z M 112.970216 77.791575 C 114.054842 77.791575 114.866209 77.501501 115.404318 76.92976 C 115.942427 76.345408 116.211481 75.437349 116.211481 74.201381 L 116.211481 72.183473 C 116.211481 70.947504 115.942427 70.047853 115.404318 69.471909 C 114.866209 68.887556 114.054842 68.597482 112.970216 68.597482 L 109.947558 68.597482 L 109.947558 77.791575 Z M 138.618667 93.808719 L 141.422718 93.808719 L 141.422718 68.652134 L 138.618667 68.652134 L 138.618667 59.403389 L 161.366375 59.403389 C 167.605074 59.403389 172.56156 61.114407 176.240038 64.536442 C 179.92272 67.954274 181.759857 73.511929 181.759857 81.209407 C 181.759857 88.894273 179.92272 94.451928 176.240038 97.869759 C 172.56156 101.291795 167.605074 102.998608 161.366375 102.998608 L 138.618667 102.998608 Z M 160.357421 93.808719 C 161.622818 93.808719 162.57712 93.472401 163.21192 92.808173 C 163.850924 92.131333 164.170427 91.084544 164.170427 89.6636 L 164.170427 72.738397 C 164.170427 69.98059 162.900826 68.597482 160.357421 68.597482 L 157.111953 68.597482 L 157.111953 93.808719 Z M 203.3809 103.780548 C 199.786502 103.780548 196.398098 103.473658 193.203077 102.859877 C 190.008056 102.241893 187.561343 101.539829 185.841917 100.75789 L 185.841917 89.6636 L 198.167971 89.6636 C 198.167971 90.819693 198.428618 91.664692 198.949911 92.194393 C 199.471204 92.711482 200.421302 92.972128 201.808614 92.972128 C 202.968911 92.972128 203.797094 92.795561 204.297367 92.438224 C 204.806048 92.08509 205.06249 91.546981 205.06249 90.840713 C 205.06249 90.247953 204.81866 89.735068 204.326795 89.306262 C 203.839134 88.869049 203.002543 88.427632 201.808614 87.977806 L 196.995062 86.30042 C 192.845739 84.728134 189.860917 82.882589 188.0448 80.759581 C 186.241295 78.619758 185.341644 75.748443 185.341644 72.124617 C 185.341644 67.718851 186.783607 64.372487 189.675942 62.072913 C 192.576685 59.773339 197.402848 58.62145 204.16284 58.62145 C 207.408308 58.62145 210.45619 58.953564 213.310689 59.609384 C 216.173596 60.261 218.485782 61.122815 220.247248 62.20744 L 220.247248 72.23392 L 209.031043 72.23392 C 209.031043 70.371559 207.870745 69.446685 205.554355 69.446685 C 204.444506 69.446685 203.649955 69.585416 203.174906 69.871286 C 202.712468 70.144545 202.477046 70.63641 202.477046 71.346882 C 202.477046 71.973274 202.7461 72.477751 203.288413 72.851905 C 203.830726 73.226058 204.717764 73.617028 205.953733 74.024814 L 210.821936 75.710607 C 214.790488 77.060083 217.678619 78.813141 219.482124 80.961372 C 221.294037 83.105399 222.202096 85.913655 222.202096 89.390342 C 222.202096 94.132425 220.604585 97.714212 217.417972 100.139906 C 214.222951 102.565599 209.543927 103.780548 203.3809 103.780548 Z M 203.3809 103.780548 " stroke="#b76e22" stroke-width="1.296" stroke-opacity="1" stroke-miterlimit="4"/><g clip-path="url(#776b49cf17)"><path fill="#ecec13" d="M 67.339844 140.121094 C 67.410156 136.980469 69.824219 135.109375 72.804688 135.109375 L 120.371094 135.109375 C 121.894531 135.109375 123.433594 134.972656 124.882812 135.484375 C 127.078125 136.261719 127.855469 138.628906 127.855469 140.722656 L 127.855469 230.304688 C 127.855469 231.652344 127.871094 232.890625 127.1875 234.136719 C 126.003906 236.300781 123.871094 236.621094 121.675781 236.621094 L 73.785156 236.621094 C 71.648438 236.621094 69.882812 236.464844 68.34375 234.6875 C 67.300781 233.476562 67.339844 231.882812 67.339844 230.398438 L 67.339844 147.230469 C 67.339844 144.101562 62.46875 144.101562 62.46875 147.230469 L 62.46875 231.132812 C 62.46875 234.753906 64.011719 237.882812 67.027344 239.953125 C 69.121094 241.394531 71.550781 241.472656 73.972656 241.472656 L 121.835938 241.472656 C 124.960938 241.472656 127.859375 240.71875 130.085938 238.351562 C 133.175781 235.070312 132.722656 230.757812 132.722656 226.65625 L 132.722656 145.925781 C 132.722656 142.417969 133.140625 138.65625 131.546875 135.421875 C 129.824219 131.921875 126.070312 130.257812 122.328125 130.257812 C 120.332031 130.257812 118.328125 130.257812 116.328125 130.257812 L 72.210938 130.257812 C 66.757812 130.257812 62.585938 134.828125 62.46875 140.121094 C 62.402344 143.25 67.269531 143.246094 67.339844 140.121094 " fill-opacity="1" fill-rule="nonzero"/></g><g clip-path="url(#95b348bdd3)"><path fill="#ecec13" d="M 54.617188 235.992188 C 51.949219 236.488281 49.28125 236.976562 46.613281 237.46875 C 44.03125 237.941406 41.335938 238.722656 38.710938 238.882812 C 35.949219 239.046875 34.355469 236.914062 33.902344 234.46875 C 33.648438 233.117188 33.398438 231.765625 33.144531 230.410156 C 30.667969 217.085938 28.195312 203.757812 25.714844 190.4375 C 23.445312 178.210938 21.171875 165.984375 18.902344 153.761719 C 18.761719 153.027344 18.628906 152.292969 18.492188 151.5625 C 18.121094 149.570312 19.484375 147.449219 21.351562 146.761719 C 21.992188 146.523438 22.710938 146.433594 23.382812 146.308594 C 29.976562 145.097656 36.578125 143.882812 43.175781 142.667969 C 47.203125 141.925781 51.234375 141.183594 55.265625 140.4375 C 56.574219 140.199219 57.296875 138.644531 56.96875 137.457031 C 56.59375 136.101562 55.277344 135.527344 53.972656 135.765625 C 43.039062 137.777344 32.097656 139.792969 21.164062 141.804688 C 16.011719 142.753906 12.871094 147.863281 13.800781 152.863281 C 13.953125 153.679688 14.097656 154.492188 14.25 155.304688 C 15.171875 160.246094 16.089844 165.179688 17.003906 170.121094 C 19.808594 185.207031 22.609375 200.285156 25.417969 215.371094 C 26.449219 220.929688 27.480469 226.484375 28.515625 232.039062 C 28.75 233.320312 28.988281 234.601562 29.226562 235.882812 C 29.902344 239.53125 32.484375 242.40625 36.09375 243.425781 C 37.898438 243.9375 39.691406 243.65625 41.488281 243.324219 C 43.234375 243.003906 44.980469 242.683594 46.726562 242.363281 C 49.789062 241.796875 52.851562 241.234375 55.910156 240.667969 C 57.21875 240.429688 57.941406 238.878906 57.613281 237.6875 C 57.238281 236.335938 55.921875 235.753906 54.617188 235.992188 " fill-opacity="1" fill-rule="nonzero"/></g></svg>