<svg xmlns="http://www.w3.org/2000/svg" xmlns:xlink="http://www.w3.org/1999/xlink" width="500" zoomAndPan="magnify" viewBox="0 0 375 374.999991" height="500" preserveAspectRatio="xMidYMid meet" version="1.0"><defs><clipPath id="07a218c223"><path d="M 4 126.574219 L 371.617188 126.574219 L 371.617188 224.824219 L 4 224.824219 Z M 4 126.574219 " clip-rule="nonzero"/></clipPath></defs><rect x="-37.5" width="450" fill="#e4572e" y="-37.499999" height="449.999989" fill-opacity="1"/><g clip-path="url(#07a218c223)"><path fill="#000000" d="M 38.042969 213.714844 C 38.664062 214.878906 36.957031 215.996094 36.105469 215.117188 C 31.503906 210.070312 26.0625 205.875 20.820312 201.183594 C 20.683594 201.382812 20.554688 201.589844 20.417969 201.789062 C 16.398438 207.714844 12.152344 213.4375 7.859375 219.175781 C 7.097656 220.117188 5.332031 219.09375 5.796875 217.960938 C 8.808594 211.363281 12.484375 205.105469 16.527344 199.15625 C 16.800781 198.753906 17.089844 198.363281 17.363281 197.964844 C 12.726562 193.429688 8.59375 188.523438 4.308594 183.886719 C 3.628906 183.117188 4.902344 181.503906 5.839844 182.089844 C 11.003906 185.765625 15.566406 190 20.070312 194.148438 L 21.230469 192.574219 C 21.832031 191.757812 22.449219 191.066406 23.054688 190.382812 C 25.484375 187.679688 27.984375 185.144531 30.46875 182.5625 C 31.199219 181.863281 32.839844 183.101562 32.339844 184.003906 C 30.441406 187.097656 28.339844 190.066406 26.265625 192.949219 C 25.753906 193.671875 25.238281 194.375 24.832031 195.039062 L 23.4375 197.234375 C 26.007812 199.582031 28.589844 201.988281 31.03125 204.589844 C 33.632812 207.367188 36.085938 210.378906 38.042969 213.714844 Z M 46.3125 191.960938 C 52.164062 192.0625 57.769531 190.714844 63.050781 189.957031 C 65.546875 189.566406 68.253906 189.578125 71.09375 189.40625 C 72.511719 189.328125 73.949219 189.21875 75.414062 189 C 76.871094 188.773438 78.363281 188.476562 79.828125 187.824219 C 80.671875 187.386719 79.792969 185.515625 79.132812 185.570312 C 77.910156 185.746094 76.582031 185.703125 75.246094 185.625 C 73.902344 185.546875 72.535156 185.417969 71.144531 185.304688 C 69.753906 185.1875 68.335938 185.085938 66.878906 185.054688 C 66.148438 185.039062 65.410156 185.042969 64.648438 185.082031 C 63.898438 185.113281 63.074219 185.207031 62.375 185.3125 C 56.535156 186.167969 51.351562 188.210938 46.042969 189.585938 C 45.15625 189.859375 45.320312 191.890625 46.3125 191.960938 Z M 79.960938 201.339844 C 74.199219 200.640625 68.398438 200.015625 62.484375 200.113281 C 56.597656 200.199219 50.550781 201.007812 44.921875 203.132812 C 43.980469 203.527344 44.511719 205.496094 45.476562 205.457031 C 51.175781 204.902344 56.820312 204.898438 62.5625 204.804688 C 68.292969 204.703125 74.132812 204.546875 79.996094 203.695312 C 80.824219 203.535156 80.777344 201.480469 79.960938 201.339844 Z M 99.058594 162.417969 C 103.511719 162.957031 107.972656 163.140625 112.433594 162.839844 C 116.890625 162.535156 121.359375 161.746094 125.675781 160.316406 C 126.398438 160.03125 126.074219 158.023438 125.320312 157.953125 C 116.460938 157.71875 107.742188 158.035156 98.929688 160.0625 C 98.3125 160.246094 98.425781 162.300781 99.058594 162.417969 Z M 132.671875 157.269531 C 132.238281 152.054688 132.230469 146.851562 133.3125 141.632812 C 133.976562 139.3125 135.917969 140.050781 135.640625 142.050781 C 135.121094 146.886719 135.53125 151.953125 136.273438 156.820312 C 136.511719 158.359375 136.816406 159.886719 137.183594 161.378906 C 137.191406 160.664062 137.242188 159.917969 137.375 159.128906 C 137.5 158.308594 137.78125 157.421875 138.214844 156.558594 C 138.457031 156.132812 138.738281 155.710938 139.054688 155.316406 C 139.398438 154.917969 139.789062 154.554688 140.21875 154.253906 C 141.082031 153.648438 142.050781 153.296875 142.957031 153.125 C 143.871094 152.953125 144.738281 152.941406 145.554688 153.003906 C 147.195312 153.132812 148.660156 153.558594 150.050781 154.078125 C 151.433594 154.609375 152.742188 155.253906 153.984375 156.011719 C 155.230469 156.78125 156.421875 157.617188 157.558594 158.746094 C 157.859375 159.042969 158.09375 159.332031 158.335938 159.621094 C 158.578125 159.917969 158.828125 160.191406 159.054688 160.503906 C 159.496094 161.152344 159.941406 161.78125 160.285156 162.527344 C 161.003906 163.964844 161.472656 165.703125 161.296875 167.484375 C 161.140625 169.261719 160.335938 170.921875 159.265625 172.164062 C 158.195312 173.425781 156.894531 174.34375 155.53125 175.023438 C 152.796875 176.359375 149.765625 176.871094 146.761719 176.378906 C 145.265625 176.121094 143.769531 175.566406 142.5 174.613281 C 141.847656 174.136719 141.277344 173.554688 140.804688 172.90625 C 140.214844 173.574219 139.242188 173.828125 138.375 173.457031 C 138.050781 173.316406 137.773438 173.097656 137.566406 172.839844 C 136.554688 171.589844 135.796875 170.285156 135.273438 168.988281 C 135.007812 168.339844 134.726562 167.6875 134.542969 167.035156 C 134.34375 166.386719 134.113281 165.734375 133.972656 165.082031 C 133.292969 162.480469 132.902344 159.875 132.671875 157.269531 Z M 141.867188 163.367188 C 141.925781 164.636719 142.039062 165.980469 142.042969 167.433594 C 142.035156 168.195312 142.015625 169.007812 141.886719 169.863281 C 141.90625 169.898438 141.929688 169.933594 141.945312 169.972656 C 142.886719 172.011719 144.921875 173.125 147.183594 173.304688 C 149.441406 173.496094 151.84375 172.902344 153.785156 171.773438 C 154.753906 171.210938 155.605469 170.5 156.203125 169.699219 C 156.804688 168.898438 157.132812 168.035156 157.164062 167.167969 C 157.257812 165.457031 156.050781 163.484375 154.4375 161.929688 C 153.675781 161.214844 152.667969 160.527344 151.644531 159.933594 C 150.617188 159.335938 149.523438 158.824219 148.425781 158.421875 C 147.332031 158.03125 146.210938 157.738281 145.203125 157.671875 C 144.1875 157.59375 143.351562 157.773438 142.925781 158.089844 C 142.503906 158.363281 142.148438 158.988281 141.976562 159.953125 C 141.800781 160.910156 141.808594 162.109375 141.867188 163.367188 Z M 171.59375 154.308594 C 172.402344 154.316406 173.332031 154.398438 174.25 154.484375 C 175.191406 154.566406 176.125 154.648438 177.0625 154.730469 C 178.394531 154.835938 179.742188 154.90625 181.097656 154.929688 C 181.101562 154.96875 181.105469 155.011719 181.109375 155.050781 C 181.191406 156.796875 181.136719 158.800781 181.355469 160.886719 C 181.582031 162.957031 182.070312 165.234375 183.386719 167.144531 C 183.890625 167.78125 185.625 166.691406 185.554688 166.132812 C 185.199219 164.445312 185.328125 162.6875 185.484375 160.828125 C 185.644531 158.964844 185.898438 157.019531 185.800781 154.820312 C 185.800781 154.808594 185.800781 154.796875 185.800781 154.785156 C 186.742188 154.703125 187.6875 154.589844 188.644531 154.429688 C 189.628906 154.261719 190.621094 154.050781 191.632812 153.734375 C 192.140625 153.570312 192.644531 153.394531 193.175781 153.140625 C 193.691406 152.890625 194.25 152.625 194.835938 151.980469 C 194.984375 151.824219 195.003906 151.480469 194.875 151.289062 C 194.757812 151.078125 194.523438 150.925781 194.277344 150.808594 C 194.027344 150.691406 193.757812 150.597656 193.558594 150.496094 C 193.460938 150.445312 193.382812 150.390625 193.332031 150.347656 C 193.289062 150.300781 193.25 150.269531 193.214844 150.265625 C 193.085938 150.261719 192.71875 150.351562 192.324219 150.367188 C 191.941406 150.398438 191.503906 150.402344 191.070312 150.40625 C 190.191406 150.40625 189.273438 150.367188 188.351562 150.335938 C 187.28125 150.296875 186.195312 150.269531 185.105469 150.25 C 185.003906 149.777344 184.902344 149.308594 184.804688 148.839844 C 184.429688 147.007812 184.035156 145.21875 184.214844 143.617188 C 184.21875 143.191406 182.417969 142.167969 182.007812 142.777344 C 181.402344 143.824219 181.097656 144.960938 180.921875 146.054688 C 180.75 147.152344 180.707031 148.226562 180.71875 149.269531 C 180.71875 149.617188 180.738281 149.960938 180.753906 150.304688 C 179.496094 150.359375 178.234375 150.457031 176.960938 150.613281 C 175.988281 150.730469 175.015625 150.882812 174.03125 151.089844 C 173.042969 151.304688 172.058594 151.546875 171 151.996094 C 170.207031 152.417969 171.15625 154.257812 171.59375 154.308594 Z M 171.75 173.605469 C 172.652344 173.414062 173.652344 173.410156 174.683594 173.46875 C 175.710938 173.523438 176.769531 173.644531 177.859375 173.765625 C 178.949219 173.886719 180.058594 174.019531 181.28125 174.070312 C 181.578125 174.085938 181.910156 174.082031 182.238281 174.078125 C 182.546875 174.074219 183 174.035156 183.246094 174.011719 L 184.871094 173.847656 C 189.210938 173.40625 193.621094 172.941406 198.101562 172.167969 C 198.855469 171.992188 198.855469 169.953125 198.097656 169.777344 C 193.601562 169.011719 189.003906 168.707031 184.394531 169.179688 C 183.816406 169.238281 183.242188 169.308594 182.667969 169.394531 C 182.355469 169.4375 182.25 169.449219 181.996094 169.476562 C 181.765625 169.496094 181.53125 169.515625 181.269531 169.523438 C 180.242188 169.574219 179.105469 169.589844 177.949219 169.664062 C 176.789062 169.734375 175.597656 169.851562 174.386719 170.101562 C 173.183594 170.355469 171.9375 170.726562 170.78125 171.453125 C 170.121094 171.9375 171.265625 173.664062 171.75 173.605469 Z M 229.164062 179.582031 C 229.308594 179.796875 229.515625 179.988281 229.765625 180.113281 C 230.53125 180.488281 231.453125 180.175781 231.832031 179.414062 L 231.847656 179.382812 C 232.777344 177.507812 233.128906 175.589844 233.355469 173.738281 C 233.566406 171.878906 233.613281 170.054688 233.617188 168.257812 C 233.613281 166.457031 233.566406 164.683594 233.542969 162.9375 C 233.527344 161.199219 233.523438 159.46875 233.683594 157.867188 C 234.460938 151.378906 234.355469 144.886719 235.410156 138.847656 C 245.957031 139.289062 256.488281 138.445312 266.839844 137.046875 C 277.828125 135.570312 288.628906 133.492188 299.445312 132.121094 C 304.851562 131.429688 310.261719 130.929688 315.675781 130.734375 L 332.132812 130.441406 C 343.128906 130.203125 354.121094 129.964844 365.105469 129.726562 C 367.792969 129.648438 369.101562 129.113281 369.128906 128.589844 C 369.167969 128.007812 367.792969 127.433594 365.117188 127.335938 C 354.117188 127.046875 343.121094 126.878906 332.121094 126.734375 L 323.875 126.636719 C 321.117188 126.613281 318.398438 126.558594 315.582031 126.578125 C 309.996094 126.644531 304.429688 127.058594 298.914062 127.679688 C 287.871094 128.914062 277.03125 130.929688 266.207031 132.398438 C 255.386719 133.878906 244.535156 134.835938 233.71875 134.421875 L 233.675781 134.421875 C 232.636719 134.378906 231.691406 135.097656 231.480469 136.148438 C 230.746094 139.808594 230.515625 143.449219 230.367188 147.011719 C 230.222656 150.589844 230.152344 154.027344 229.84375 157.523438 C 229.710938 159.445312 229.78125 161.253906 229.855469 163.042969 L 230.101562 168.316406 C 230.15625 170.046875 230.171875 171.757812 230.046875 173.417969 C 230 173.996094 229.925781 174.570312 229.839844 175.128906 C 227.246094 171.398438 224.714844 167.554688 221.863281 163.90625 C 220.4375 162.121094 219.269531 161.59375 218.851562 161.9375 C 218.417969 162.292969 218.703125 163.488281 219.964844 165.308594 C 223.191406 169.882812 225.992188 174.792969 229.164062 179.582031 Z M 264.183594 161.398438 C 264.890625 162.515625 265.5 163.847656 265.59375 165.414062 C 265.703125 166.976562 265.144531 168.59375 264.273438 169.734375 C 263.410156 170.898438 262.328125 171.699219 261.230469 172.308594 C 260.128906 172.914062 258.980469 173.324219 257.820312 173.609375 C 255.5 174.164062 253.078125 174.214844 250.699219 173.546875 C 250.410156 173.460938 250.121094 173.363281 249.835938 173.25 C 249.667969 174.226562 248.84375 174.992188 247.8125 175.042969 C 246.667969 175.101562 245.6875 174.253906 245.554688 173.136719 C 245.546875 173.097656 245.546875 173.054688 245.539062 173.011719 C 245.535156 172.984375 245.535156 172.957031 245.53125 172.929688 C 245.101562 169.1875 245.058594 165.570312 244.882812 162.003906 C 244.707031 158.382812 244.488281 154.785156 243.605469 151.390625 C 243.203125 149.855469 245.070312 148.96875 245.84375 150.636719 C 247.136719 153.851562 247.773438 157.203125 248.265625 160.507812 C 248.621094 160.054688 249.03125 159.621094 249.523438 159.230469 C 250.691406 158.292969 252.023438 157.742188 253.339844 157.464844 C 254.664062 157.1875 255.988281 157.160156 257.289062 157.339844 C 258.585938 157.527344 259.867188 157.921875 261.0625 158.578125 C 262.253906 159.230469 263.375 160.167969 264.183594 161.398438 Z M 261.253906 165.726562 C 261.191406 165.1875 260.902344 164.550781 260.464844 163.914062 C 259.722656 162.871094 258.246094 162.144531 256.667969 161.957031 C 255.105469 161.746094 253.417969 162.101562 252.460938 162.886719 C 251.5625 163.550781 250.792969 165.285156 250.378906 167.054688 C 250.152344 168.011719 250 169.023438 249.914062 170.035156 C 250.382812 170.253906 250.898438 170.417969 251.453125 170.515625 C 253.171875 170.808594 255.09375 170.613281 256.816406 170.027344 C 258.519531 169.46875 260.148438 168.472656 260.859375 167.332031 C 261.210938 166.769531 261.316406 166.265625 261.253906 165.726562 Z M 271.542969 148.921875 C 270.960938 149.878906 270.292969 150.84375 269.59375 151.84375 L 268.53125 153.394531 C 268.167969 153.945312 267.808594 154.476562 267.414062 155.277344 L 267.359375 155.394531 C 267.167969 155.785156 267.09375 156.238281 267.179688 156.703125 C 267.386719 157.859375 268.496094 158.632812 269.65625 158.425781 C 272.082031 157.992188 274.148438 157.386719 276.265625 157.019531 C 278.335938 156.644531 280.476562 156.429688 282.019531 157.121094 C 282.710938 157.453125 284.535156 156.300781 283.34375 155.128906 C 282.199219 154.242188 280.859375 153.84375 279.605469 153.625 C 278.335938 153.410156 277.109375 153.390625 275.90625 153.425781 C 275.292969 153.441406 274.679688 153.480469 274.078125 153.53125 C 274.578125 152.84375 275.078125 152.136719 275.554688 151.371094 C 276.25 150.210938 276.941406 148.984375 277.339844 147.320312 C 277.519531 146.492188 277.628906 145.476562 277.304688 144.339844 C 276.988281 143.191406 276.09375 142.1875 275.242188 141.671875 C 274.371094 141.109375 273.339844 140.839844 272.441406 140.800781 C 271.53125 140.753906 270.707031 140.890625 269.953125 141.105469 C 268.445312 141.542969 267.171875 142.261719 266.042969 143.136719 C 264.921875 144.019531 263.929688 145.054688 263.171875 146.316406 C 262.792969 146.949219 262.476562 147.644531 262.285156 148.414062 C 262.09375 149.175781 262.035156 150.035156 262.261719 150.867188 C 262.363281 151.210938 262.59375 151.414062 262.859375 151.480469 C 263.121094 151.554688 263.394531 151.5 263.644531 151.386719 C 264.15625 151.136719 264.554688 150.75 264.585938 150.453125 C 264.574219 149.691406 265.039062 148.84375 265.703125 148.09375 C 266.363281 147.34375 267.226562 146.691406 268.128906 146.171875 C 269.035156 145.65625 270.015625 145.277344 270.910156 145.128906 C 271.355469 145.054688 271.769531 145.046875 272.09375 145.101562 C 272.425781 145.160156 272.609375 145.253906 272.765625 145.382812 C 272.941406 145.542969 272.894531 145.539062 272.902344 145.585938 C 272.902344 145.648438 272.910156 145.898438 272.8125 146.265625 C 272.617188 147.003906 272.121094 147.980469 271.542969 148.921875 Z M 296.46875 162 C 294.601562 162.125 292.730469 162.4375 290.898438 162.980469 C 289.074219 163.527344 287.261719 164.300781 285.644531 165.453125 C 285.195312 165.820312 286.152344 167.640625 286.628906 167.597656 C 288.285156 167.277344 289.972656 167.140625 291.664062 167.011719 C 293.375 166.902344 295.074219 166.792969 296.773438 166.679688 C 300.199219 166.480469 303.65625 166.15625 307.175781 165.898438 C 307.773438 165.808594 308.140625 163.804688 307.546875 163.535156 C 303.972656 162.230469 300.207031 161.773438 296.46875 162 Z M 330.199219 154.996094 C 330.152344 153.675781 330.078125 152.636719 330.054688 151.425781 C 330.023438 150.238281 329.996094 149.007812 329.914062 147.757812 C 329.738281 145.265625 329.472656 142.636719 328.328125 140.109375 C 327.941406 139.394531 326.039062 140.195312 326.070312 140.796875 C 326.308594 142.980469 326.019531 145.316406 325.804688 147.695312 C 325.765625 148.117188 325.726562 148.546875 325.6875 148.976562 C 325.125 149.066406 324.542969 149.144531 323.972656 149.21875 C 322.867188 149.355469 321.753906 149.484375 320.636719 149.597656 C 319.636719 149.695312 318.636719 149.792969 317.636719 149.890625 C 318.117188 148.886719 318.671875 147.875 319.261719 146.871094 C 320.484375 144.8125 321.824219 142.742188 323.300781 140.789062 C 323.664062 140.242188 322.320312 138.683594 321.683594 139.066406 C 319.480469 140.589844 317.554688 142.417969 315.847656 144.488281 C 315 145.523438 314.214844 146.628906 313.53125 147.839844 C 312.847656 149.054688 312.242188 150.355469 311.878906 151.898438 L 311.863281 151.957031 C 311.824219 152.121094 311.804688 152.296875 311.804688 152.476562 C 311.808594 153.746094 312.84375 154.773438 314.113281 154.769531 C 315.542969 154.769531 316.703125 154.59375 317.910156 154.390625 C 319.097656 154.179688 320.253906 153.90625 321.40625 153.589844 C 322.554688 153.277344 323.6875 152.902344 324.8125 152.46875 C 325.035156 152.382812 325.25 152.292969 325.46875 152.207031 C 325.441406 153.210938 325.46875 154.253906 325.5 155.132812 C 325.566406 157.511719 325.640625 159.976562 325.925781 162.472656 C 326.203125 164.964844 326.703125 167.519531 327.636719 169.933594 C 328 170.746094 329.96875 170.207031 329.972656 169.414062 C 329.726562 164.707031 330.351562 160.015625 330.199219 154.996094 Z M 350 152.515625 C 349.953125 154.84375 349.953125 157.164062 350.066406 159.460938 C 350.183594 161.753906 350.394531 164.046875 350.957031 166.179688 C 351.289062 167.460938 349.503906 168.472656 348.714844 167.015625 C 347.691406 164.796875 347.113281 162.492188 346.679688 160.191406 C 346.003906 161.070312 345.191406 161.898438 344.191406 162.566406 C 343.308594 163.164062 342.296875 163.609375 341.261719 163.867188 C 340.214844 164.121094 339.105469 164.210938 337.933594 164.023438 C 336.777344 163.84375 335.507812 163.320312 334.53125 162.339844 C 333.542969 161.363281 333.03125 160.039062 332.898438 158.898438 C 332.75 157.757812 332.847656 156.632812 333.191406 155.550781 C 333.53125 154.46875 334.121094 153.519531 334.804688 152.738281 C 336.191406 151.175781 337.898438 150.191406 339.652344 149.585938 C 341.417969 148.992188 343.261719 148.699219 345.1875 148.941406 C 346.144531 149.070312 347.144531 149.328125 348.085938 149.960938 C 348.363281 150.140625 348.625 150.367188 348.859375 150.625 C 349.582031 150.992188 350.015625 151.738281 350 152.515625 Z M 345.804688 152.109375 C 345.539062 152.074219 345.253906 152.054688 344.964844 152.0625 C 343.667969 152.085938 342.277344 152.484375 341.058594 153.0625 C 339.828125 153.640625 338.753906 154.480469 338.078125 155.398438 C 337.390625 156.316406 337.203125 157.28125 337.375 158.222656 C 337.457031 158.667969 337.609375 158.90625 337.78125 159.054688 C 337.957031 159.207031 338.238281 159.347656 338.667969 159.410156 C 339.53125 159.539062 340.734375 159.257812 341.605469 158.675781 C 342.53125 158.082031 343.34375 157.121094 344.039062 155.921875 C 344.699219 154.796875 345.25 153.496094 345.804688 152.109375 Z M 368.964844 161.203125 C 367.492188 163.054688 365.300781 163.722656 363.335938 163.371094 C 362.355469 163.210938 361.449219 162.785156 360.746094 162.210938 C 360.035156 161.636719 359.550781 160.894531 359.257812 160.046875 C 358.675781 158.367188 359.019531 155.96875 359.945312 153.949219 C 360.414062 152.945312 361.039062 152.042969 361.796875 151.398438 C 362.550781 150.734375 363.460938 150.390625 364.5625 150.445312 C 365.148438 150.429688 365.996094 148.53125 365.085938 148.144531 C 364.316406 147.84375 363.433594 147.746094 362.546875 147.789062 C 362.113281 147.832031 361.667969 147.917969 361.242188 148.03125 C 360.835938 148.183594 360.386719 148.300781 360.023438 148.523438 C 358.464844 149.324219 357.273438 150.5625 356.378906 151.90625 C 355.484375 153.261719 354.878906 154.761719 354.550781 156.375 C 354.222656 157.988281 354.21875 159.789062 354.796875 161.53125 C 355.371094 163.261719 356.535156 164.847656 358.039062 165.871094 C 359.53125 166.90625 361.289062 167.457031 363.027344 167.480469 C 364.765625 167.511719 366.503906 167.054688 367.933594 166.117188 C 368.644531 165.65625 369.285156 165.089844 369.808594 164.453125 C 370.332031 163.808594 370.738281 163.105469 371.050781 162.378906 C 371.394531 161.328125 369.457031 160.628906 368.964844 161.203125 Z M 365.621094 180.03125 C 360.1875 180.109375 354.714844 179.667969 349.164062 179.464844 C 343.589844 179.222656 337.992188 179.488281 332.476562 179.863281 C 326.953125 180.238281 321.476562 180.714844 316.027344 180.914062 C 310.492188 181.121094 304.960938 181.445312 299.441406 181.839844 C 288.402344 182.636719 277.40625 183.722656 266.433594 184.726562 C 255.453125 185.710938 244.464844 186.683594 233.484375 187.546875 C 211.519531 189.257812 189.535156 190.570312 167.546875 190.667969 C 162.050781 190.679688 156.554688 190.652344 151.0625 190.5 L 146.941406 190.394531 C 145.546875 190.351562 144.144531 190.324219 142.75 190.324219 C 139.957031 190.320312 137.175781 190.398438 134.410156 190.511719 C 128.875 190.734375 123.386719 191.085938 117.921875 191.167969 C 112.515625 191.230469 106.992188 190.773438 101.410156 190.820312 C 97.628906 190.863281 95.757812 191.726562 95.847656 192.257812 C 95.9375 192.820312 97.75 193.078125 101.390625 193.207031 C 106.832031 193.351562 112.296875 193.988281 117.921875 194.101562 C 123.484375 194.183594 129.011719 193.988281 134.5 193.910156 C 137.246094 193.871094 139.980469 193.863281 142.703125 193.929688 C 144.0625 193.960938 145.417969 194.023438 146.777344 194.09375 L 150.925781 194.292969 C 156.457031 194.566406 161.992188 194.703125 167.527344 194.789062 C 189.679688 195.074219 211.8125 193.945312 233.851562 192.222656 C 244.875 191.359375 255.871094 190.335938 266.867188 189.25 C 277.863281 188.148438 288.816406 186.914062 299.773438 185.929688 C 305.25 185.441406 310.726562 185.015625 316.207031 184.6875 C 321.78125 184.359375 327.28125 183.742188 332.75 183.226562 C 338.222656 182.714844 343.648438 182.300781 349.101562 182.367188 C 354.570312 182.398438 360.113281 182.664062 365.699219 182.386719 C 368.867188 182.191406 370.386719 181.421875 370.320312 180.886719 C 370.25 180.324219 368.679688 179.992188 365.621094 180.03125 Z M 234.59375 219.835938 C 230.652344 219.222656 226.5625 218.96875 222.472656 219.289062 C 223.675781 218.046875 224.867188 216.78125 226.023438 215.460938 C 227.320312 213.976562 228.574219 212.433594 229.734375 210.742188 C 230.308594 209.890625 230.859375 209.003906 231.355469 208.023438 C 231.839844 207.035156 232.304688 205.972656 232.503906 204.59375 C 232.574219 203.882812 232.621094 203.097656 232.324219 202.203125 C 232.261719 201.96875 232.183594 201.820312 232.109375 201.65625 L 231.878906 201.171875 C 231.707031 200.851562 231.480469 200.539062 231.257812 200.234375 C 230.757812 199.65625 230.15625 199.125 229.480469 198.796875 C 228.8125 198.425781 228.121094 198.257812 227.457031 198.136719 C 226.132812 197.9375 224.945312 198.097656 223.84375 198.34375 C 222.746094 198.601562 221.730469 198.984375 220.769531 199.433594 C 218.855469 200.34375 217.125 201.503906 215.59375 202.917969 C 214.828125 203.628906 214.113281 204.402344 213.484375 205.273438 C 212.863281 206.148438 212.304688 207.128906 212.019531 208.296875 C 211.9375 208.777344 212.027344 209.164062 212.246094 209.414062 C 212.449219 209.660156 212.722656 209.75 212.996094 209.742188 C 213.273438 209.734375 213.554688 209.632812 213.78125 209.503906 C 213.992188 209.375 214.195312 209.207031 214.289062 208.953125 C 214.859375 207.605469 216.191406 206.335938 217.585938 205.320312 C 219.003906 204.289062 220.601562 203.460938 222.210938 202.871094 C 223.019531 202.582031 223.835938 202.359375 224.617188 202.246094 C 225.394531 202.132812 226.15625 202.121094 226.722656 202.261719 C 227.300781 202.410156 227.601562 202.636719 227.820312 202.929688 C 227.863281 203.027344 227.921875 203.101562 227.96875 203.207031 L 228.03125 203.375 C 228.054688 203.429688 228.089844 203.496094 228.070312 203.5 C 228.089844 203.519531 228.070312 203.722656 228.039062 203.953125 C 227.941406 204.472656 227.648438 205.199219 227.257812 205.910156 C 226.871094 206.628906 226.394531 207.363281 225.886719 208.089844 C 224.855469 209.546875 223.6875 210.984375 222.476562 212.398438 C 221.261719 213.816406 220 215.214844 218.722656 216.621094 C 217.4375 218.050781 216.160156 219.386719 214.824219 221.019531 L 214.753906 221.105469 C 214.324219 221.636719 214.160156 222.371094 214.386719 223.070312 C 214.742188 224.179688 215.929688 224.792969 217.042969 224.4375 C 222.515625 222.695312 228.421875 222.152344 234.402344 222.214844 C 236.175781 222.195312 236.402344 220.171875 234.59375 219.835938 Z M 255.59375 205.433594 C 256.003906 205.78125 256.042969 206.371094 255.832031 206.894531 C 255.699219 207.21875 255.410156 207.488281 255.03125 207.554688 C 254.523438 211.390625 254.945312 215.605469 255.015625 219.886719 C 254.980469 221.460938 252.945312 221.589844 252.632812 220.117188 C 252.246094 218.027344 251.800781 215.910156 251.464844 213.726562 C 250.898438 214.433594 250.285156 215.117188 249.597656 215.765625 C 248.882812 216.425781 248.105469 217.0625 247.117188 217.605469 C 246.871094 217.742188 246.613281 217.875 246.320312 217.988281 C 246.050781 218.109375 245.726562 218.207031 245.402344 218.292969 C 245.085938 218.382812 244.691406 218.425781 244.324219 218.457031 C 243.914062 218.453125 243.519531 218.460938 243.085938 218.347656 C 242.65625 218.265625 242.246094 218.085938 241.855469 217.878906 C 241.492188 217.667969 241.136719 217.398438 240.867188 217.125 C 240.609375 216.847656 240.335938 216.550781 240.179688 216.269531 C 239.992188 215.984375 239.816406 215.6875 239.710938 215.421875 C 239.210938 214.308594 239.015625 213.296875 238.902344 212.335938 C 238.835938 211.878906 238.804688 211.320312 238.800781 210.773438 L 238.847656 209.949219 C 238.886719 209.671875 238.933594 209.398438 238.980469 209.121094 C 239.203125 208.027344 239.652344 206.972656 240.273438 206.0625 C 241.515625 204.222656 243.34375 203.023438 245.207031 202.355469 C 246.144531 202.015625 247.089844 201.808594 248.125 201.722656 C 249.148438 201.636719 250.304688 201.742188 251.339844 202.171875 C 252.144531 202.496094 252.808594 202.96875 253.367188 203.441406 C 253.503906 203.449219 253.644531 203.46875 253.785156 203.503906 C 254.621094 203.71875 255.203125 204.414062 255.324219 205.21875 C 255.410156 205.289062 255.5 205.367188 255.59375 205.433594 Z M 244.03125 214.003906 C 244.03125 214.003906 244.03125 214.003906 244.03125 214.007812 C 244.03125 214.007812 244.023438 214.023438 244.023438 214.019531 Z M 244.152344 213.8125 C 244.152344 213.8125 244.148438 213.816406 244.144531 213.816406 C 244.148438 213.816406 244.152344 213.808594 244.152344 213.8125 Z M 250.4375 207.058594 C 250.726562 206.5 250.964844 205.929688 251.117188 205.433594 C 250.835938 205.296875 250.566406 205.191406 250.308594 205.132812 C 249.757812 205 249.195312 205.023438 248.558594 205.160156 C 247.933594 205.292969 247.242188 205.523438 246.632812 205.832031 C 245.40625 206.429688 244.402344 207.308594 243.84375 208.316406 C 243.5625 208.820312 243.386719 209.351562 243.308594 209.902344 L 243.269531 210.320312 L 243.273438 210.75 C 243.296875 211.039062 243.316406 211.320312 243.390625 211.6875 C 243.496094 212.386719 243.6875 213.03125 243.890625 213.4375 C 243.9375 213.5625 243.992188 213.617188 244.035156 213.683594 C 244.0625 213.742188 244.085938 213.761719 244.105469 213.773438 C 244.148438 213.757812 244.179688 213.773438 244.257812 213.742188 C 244.335938 213.714844 244.417969 213.703125 244.53125 213.644531 C 244.632812 213.609375 244.746094 213.550781 244.871094 213.480469 C 245.351562 213.21875 245.898438 212.804688 246.417969 212.335938 C 247.46875 211.386719 248.453125 210.199219 249.296875 208.960938 C 249.722656 208.34375 250.109375 207.703125 250.4375 207.058594 Z M 250.4375 207.058594 " fill-opacity="1" fill-rule="nonzero"/></g></svg>