<svg xmlns="http://www.w3.org/2000/svg" xmlns:xlink="http://www.w3.org/1999/xlink" width="500" zoomAndPan="magnify" viewBox="0 0 375 374.999991" height="500" preserveAspectRatio="xMidYMid meet" version="1.0"><defs><clipPath id="cc1357d68c"><path d="M 57.484375 10.589844 L 299.734375 10.589844 L 299.734375 364.589844 L 57.484375 364.589844 Z M 57.484375 10.589844 " clip-rule="nonzero"/></clipPath></defs><rect x="-37.5" width="450" fill="#ffffff" y="-37.499999" height="449.999989" fill-opacity="1"/><rect x="-37.5" width="450" fill="#ffffff" y="-37.499999" height="449.999989" fill-opacity="1"/><rect x="-37.5" width="450" fill="#e4572e" y="-37.499999" height="449.999989" fill-opacity="1"/><g clip-path="url(#cc1357d68c)"><path fill="#8eddbe" d="M 299.722656 348.84375 C 299.714844 349.367188 299.644531 350.007812 299.59375 350.582031 C 299.445312 351.167969 299.332031 351.761719 299.117188 352.339844 C 298.847656 352.910156 298.679688 353.5 298.304688 354.050781 C 297 356.296875 294.84375 358.359375 292.019531 360.035156 C 289.175781 361.6875 285.710938 362.988281 281.90625 363.722656 C 280.96875 363.921875 279.980469 364.03125 279.019531 364.179688 C 278.035156 364.277344 277.050781 364.371094 276.0625 364.429688 L 274.574219 364.46875 C 274.074219 364.484375 273.558594 364.496094 273.175781 364.488281 L 270.679688 364.476562 L 260.691406 364.425781 C 254.03125 364.394531 247.375 364.363281 240.714844 364.292969 L 220.738281 364.105469 L 200.761719 363.855469 C 174.128906 363.5 147.492188 362.984375 120.859375 362.207031 C 110.8125 362.441406 100.769531 362.636719 90.726562 362.804688 L 83.191406 362.921875 C 80.503906 362.949219 77.78125 362.71875 75.199219 362.210938 C 72.613281 361.707031 70.167969 360.929688 68.015625 359.917969 C 65.875 358.898438 64.027344 357.660156 62.578125 356.265625 C 61.125 354.871094 60.078125 353.320312 59.492188 351.703125 L 59.140625 350.480469 L 58.996094 349.242188 C 58.933594 348.453125 58.933594 347.738281 58.898438 346.980469 L 58.652344 338.019531 L 58.234375 320.101562 L 57.933594 302.179688 L 57.789062 284.257812 C 57.675781 272.3125 57.765625 260.363281 58.003906 248.417969 L 59.117188 212.578125 L 59.707031 194.65625 L 60.054688 176.734375 C 60.171875 164.789062 60.167969 152.839844 59.996094 140.894531 L 59.859375 131.933594 L 59.628906 122.972656 L 59.15625 105.050781 C 58.816406 93.105469 58.375 81.160156 58.125 69.210938 C 57.84375 57.265625 57.699219 45.316406 57.566406 33.371094 L 57.515625 28.890625 L 57.488281 26.652344 C 57.492188 26.457031 57.480469 26.292969 57.492188 26.078125 L 57.535156 25.417969 C 57.566406 24.980469 57.59375 24.539062 57.722656 24.105469 C 58.429688 20.597656 61.378906 17.285156 65.730469 14.890625 C 67.90625 13.6875 70.429688 12.707031 73.171875 12.007812 C 75.917969 11.3125 78.878906 10.921875 81.847656 10.824219 L 82.964844 10.789062 C 83.332031 10.777344 83.605469 10.78125 83.933594 10.78125 L 89.582031 10.757812 L 97.117188 10.726562 C 107.160156 10.671875 117.203125 10.671875 127.25 10.667969 L 157.382812 10.667969 C 177.472656 10.75 197.558594 10.765625 217.648438 10.902344 L 247.78125 11.085938 L 262.847656 11.210938 L 270.382812 11.273438 C 271.667969 11.292969 272.820312 11.28125 274.222656 11.320312 C 274.9375 11.351562 275.660156 11.367188 276.375 11.414062 L 278.503906 11.621094 C 284.144531 12.339844 289.300781 14.234375 292.820312 16.902344 C 296.371094 19.558594 297.472656 44.21875 297.472656 44.21875 C 297.304688 50.191406 297.003906 56.164062 296.730469 62.136719 C 296.464844 68.113281 298.054688 111.738281 298.558594 127.578125 C 298.558594 127.578125 296.988281 206.777344 296.738281 222.621094 C 296.625 230.539062 298.421875 285.980469 298.667969 293.898438 C 298.949219 301.820312 299.097656 309.742188 299.226562 317.660156 L 299.636719 341.421875 L 299.722656 347.359375 Z M 299.722656 348.84375 " fill-opacity="1" fill-rule="nonzero"/></g><path fill="#9e968c" d="M 265.019531 58.925781 C 265.300781 58.929688 265.640625 58.945312 265.949219 58.953125 C 266.261719 58.984375 266.578125 59.007812 266.886719 59.050781 C 267.191406 59.105469 267.503906 59.140625 267.796875 59.21875 C 268.996094 59.484375 270.09375 59.925781 270.988281 60.503906 C 271.871094 61.085938 272.5625 61.796875 272.953125 62.574219 C 273.0625 62.765625 273.121094 62.96875 273.199219 63.164062 C 273.25 63.367188 273.300781 63.566406 273.332031 63.769531 L 273.351562 64.074219 C 273.359375 64.175781 273.367188 64.28125 273.363281 64.359375 L 273.355469 64.871094 L 273.328125 66.914062 C 273.3125 68.277344 273.296875 69.640625 273.257812 71.003906 L 273.160156 75.09375 L 273.027344 79.179688 C 272.835938 84.632812 272.375 99.648438 272.464844 101.703125 L 272.527344 103.246094 C 272.542969 103.792969 272.417969 104.351562 272.148438 104.882812 C 271.878906 105.410156 271.464844 105.910156 270.925781 106.351562 C 270.382812 106.789062 269.722656 107.167969 268.976562 107.464844 C 268.234375 107.761719 267.40625 107.976562 266.546875 108.09375 L 265.894531 108.167969 L 265.234375 108.195312 C 264.8125 108.210938 264.429688 108.210938 264.027344 108.214844 L 259.25 108.265625 L 249.695312 108.351562 L 240.136719 108.414062 L 230.582031 108.445312 C 224.210938 108.46875 217.839844 108.449219 211.46875 108.398438 L 192.359375 108.171875 L 182.800781 108.050781 L 173.246094 107.980469 C 166.875 107.957031 160.503906 107.957031 154.132812 107.992188 L 149.355469 108.019531 L 144.578125 108.066406 L 135.023438 108.164062 C 128.652344 108.234375 122.28125 108.324219 115.910156 108.375 C 109.539062 108.433594 103.167969 108.460938 96.796875 108.488281 L 94.410156 108.5 L 93.214844 108.503906 C 93.113281 108.503906 93.023438 108.507812 92.910156 108.503906 L 92.558594 108.496094 C 92.324219 108.488281 92.089844 108.484375 91.855469 108.457031 C 89.988281 108.3125 88.21875 107.707031 86.945312 106.816406 C 86.304688 106.371094 85.78125 105.855469 85.40625 105.296875 C 85.035156 104.734375 84.828125 104.125 84.773438 103.519531 L 84.757812 103.289062 C 84.75 103.214844 84.753906 103.160156 84.753906 103.09375 L 84.75 102.707031 L 84.742188 101.9375 L 84.722656 100.394531 C 84.695312 98.339844 84.695312 96.28125 84.691406 94.226562 L 84.691406 88.058594 C 84.734375 83.945312 84.746094 79.835938 84.816406 75.722656 L 84.914062 69.554688 L 84.980469 66.472656 L 85.015625 64.929688 C 85.023438 64.667969 85.019531 64.429688 85.039062 64.144531 C 85.054688 63.996094 85.0625 63.851562 85.089844 63.703125 L 85.203125 63.265625 C 85.582031 62.113281 86.59375 61.058594 88.015625 60.335938 C 89.433594 59.613281 91.257812 59.238281 93.027344 59.261719 L 102.582031 59.386719 C 105.765625 59.417969 108.953125 59.480469 112.136719 59.535156 C 115.324219 59.589844 118.507812 59.644531 121.695312 59.722656 C 130.140625 59.40625 138.585938 59.265625 147.03125 59.164062 L 153.367188 59.101562 L 159.703125 59.070312 C 163.925781 59.046875 168.148438 59.066406 172.371094 59.117188 C 180.816406 59.21875 189.265625 59.484375 197.710938 59.535156 C 201.933594 59.558594 206.15625 59.558594 210.378906 59.523438 L 213.546875 59.496094 L 216.714844 59.449219 L 223.050781 59.351562 C 227.273438 59.28125 231.496094 59.191406 235.71875 59.140625 C 239.945312 59.082031 244.167969 59.054688 248.390625 59.027344 L 261.058594 58.941406 L 264.226562 58.925781 Z M 265.019531 58.925781 " fill-opacity="1" fill-rule="nonzero"/><path fill="#f5b95b" d="M 110.140625 178.957031 L 101.664062 178.957031 C 93.695312 178.957031 87.238281 172.492188 87.238281 164.515625 L 87.238281 156.027344 C 87.238281 148.050781 93.695312 141.582031 101.664062 141.582031 L 110.140625 141.582031 C 118.109375 141.582031 124.566406 148.050781 124.566406 156.027344 L 124.566406 164.515625 C 124.566406 172.492188 118.109375 178.957031 110.140625 178.957031 Z M 173.183594 164.515625 L 173.183594 156.027344 C 173.183594 148.050781 166.722656 141.582031 158.753906 141.582031 L 150.277344 141.582031 C 142.3125 141.582031 135.851562 148.050781 135.851562 156.027344 L 135.851562 164.515625 C 135.851562 172.492188 142.3125 178.957031 150.277344 178.957031 L 158.753906 178.957031 C 166.722656 178.957031 173.183594 172.492188 173.183594 164.515625 Z M 221.796875 164.515625 L 221.796875 156.027344 C 221.796875 148.050781 215.335938 141.582031 207.371094 141.582031 L 198.894531 141.582031 C 190.925781 141.582031 184.46875 148.050781 184.46875 156.027344 L 184.46875 164.515625 C 184.46875 172.492188 190.925781 178.957031 198.894531 178.957031 L 207.371094 178.957031 C 215.335938 178.957031 221.796875 172.492188 221.796875 164.515625 Z M 124.566406 213.1875 L 124.566406 204.703125 C 124.566406 196.722656 118.109375 190.257812 110.140625 190.257812 L 101.664062 190.257812 C 93.695312 190.257812 87.238281 196.722656 87.238281 204.703125 L 87.238281 213.1875 C 87.238281 221.164062 93.695312 227.632812 101.664062 227.632812 L 110.140625 227.632812 C 118.109375 227.632812 124.566406 221.164062 124.566406 213.1875 Z M 173.183594 213.1875 L 173.183594 204.703125 C 173.183594 196.722656 166.722656 190.257812 158.753906 190.257812 L 150.277344 190.257812 C 142.3125 190.257812 135.851562 196.722656 135.851562 204.703125 L 135.851562 213.1875 C 135.851562 221.164062 142.3125 227.632812 150.277344 227.632812 L 158.753906 227.632812 C 166.722656 227.632812 173.183594 221.164062 173.183594 213.1875 Z M 221.796875 213.1875 L 221.796875 204.703125 C 221.796875 196.722656 215.335938 190.257812 207.371094 190.257812 L 198.894531 190.257812 C 190.925781 190.257812 184.46875 196.722656 184.46875 204.703125 L 184.46875 213.1875 C 184.46875 221.164062 190.925781 227.632812 198.894531 227.632812 L 207.371094 227.632812 C 215.335938 227.632812 221.796875 221.164062 221.796875 213.1875 Z M 124.566406 261.859375 L 124.566406 253.375 C 124.566406 245.398438 118.109375 238.929688 110.140625 238.929688 L 101.664062 238.929688 C 93.695312 238.929688 87.238281 245.398438 87.238281 253.375 L 87.238281 261.859375 C 87.238281 269.839844 93.695312 276.304688 101.664062 276.304688 L 110.140625 276.304688 C 118.109375 276.304688 124.566406 269.839844 124.566406 261.859375 Z M 173.183594 261.859375 L 173.183594 253.375 C 173.183594 245.398438 166.722656 238.929688 158.753906 238.929688 L 150.277344 238.929688 C 142.3125 238.929688 135.851562 245.398438 135.851562 253.375 L 135.851562 261.859375 C 135.851562 269.839844 142.3125 276.304688 150.277344 276.304688 L 158.753906 276.304688 C 166.722656 276.304688 173.183594 269.839844 173.183594 261.859375 Z M 221.796875 261.859375 L 221.796875 253.375 C 221.796875 245.398438 215.335938 238.929688 207.371094 238.929688 L 198.894531 238.929688 C 190.925781 238.929688 184.46875 245.398438 184.46875 253.375 L 184.46875 261.859375 C 184.46875 269.839844 190.925781 276.304688 198.894531 276.304688 L 207.371094 276.304688 C 215.335938 276.304688 221.796875 269.839844 221.796875 261.859375 Z M 124.566406 305.667969 L 124.566406 297.179688 C 124.566406 289.203125 118.109375 282.738281 110.140625 282.738281 L 101.664062 282.738281 C 93.695312 282.738281 87.238281 289.203125 87.238281 297.179688 L 87.238281 305.667969 C 87.238281 313.644531 93.695312 320.113281 101.664062 320.113281 L 110.140625 320.113281 C 118.109375 320.113281 124.566406 313.644531 124.566406 305.667969 Z M 173.183594 305.667969 L 173.183594 297.179688 C 173.183594 289.203125 166.722656 282.738281 158.753906 282.738281 L 150.277344 282.738281 C 142.3125 282.738281 135.851562 289.203125 135.851562 297.179688 L 135.851562 305.667969 C 135.851562 313.644531 142.3125 320.113281 150.277344 320.113281 L 158.753906 320.113281 C 166.722656 320.113281 173.183594 313.644531 173.183594 305.667969 Z M 173.183594 305.667969 " fill-opacity="1" fill-rule="nonzero"/><path fill="#ffffff" d="M 255.984375 178.957031 L 247.507812 178.957031 C 239.539062 178.957031 233.082031 172.492188 233.082031 164.515625 L 233.082031 156.027344 C 233.082031 148.050781 239.539062 141.582031 247.507812 141.582031 L 255.984375 141.582031 C 263.953125 141.582031 270.410156 148.050781 270.410156 156.027344 L 270.410156 164.515625 C 270.410156 172.492188 263.953125 178.957031 255.984375 178.957031 Z M 270.410156 213.1875 L 270.410156 204.703125 C 270.410156 196.722656 263.953125 190.257812 255.984375 190.257812 L 247.507812 190.257812 C 239.542969 190.257812 233.082031 196.722656 233.082031 204.703125 L 233.082031 213.1875 C 233.082031 221.164062 239.542969 227.632812 247.507812 227.632812 L 255.984375 227.632812 C 263.953125 227.632812 270.410156 221.164062 270.410156 213.1875 Z M 270.410156 261.859375 L 270.410156 253.375 C 270.410156 245.398438 263.953125 238.929688 255.984375 238.929688 L 247.507812 238.929688 C 239.542969 238.929688 233.082031 245.398438 233.082031 253.375 L 233.082031 261.859375 C 233.082031 269.839844 239.542969 276.304688 247.507812 276.304688 L 255.984375 276.304688 C 263.953125 276.304688 270.410156 269.839844 270.410156 261.859375 Z M 221.796875 305.667969 L 221.796875 297.179688 C 221.796875 289.203125 215.335938 282.738281 207.371094 282.738281 L 198.894531 282.738281 C 190.925781 282.738281 184.46875 289.203125 184.46875 297.179688 L 184.46875 305.667969 C 184.46875 313.644531 190.925781 320.113281 198.894531 320.113281 L 207.371094 320.113281 C 215.335938 320.113281 221.796875 313.644531 221.796875 305.667969 Z M 270.410156 305.667969 L 270.410156 297.179688 C 270.410156 289.203125 263.953125 282.738281 255.984375 282.738281 L 247.507812 282.738281 C 239.542969 282.738281 233.082031 289.203125 233.082031 297.179688 L 233.082031 305.667969 C 233.082031 313.644531 239.542969 320.113281 247.507812 320.113281 L 255.984375 320.113281 C 263.953125 320.113281 270.410156 313.644531 270.410156 305.667969 Z M 101.621094 332.214844 C 87.867188 329.753906 66.390625 326.492188 71.722656 341.050781 C 74.921875 349.792969 100.140625 349.292969 111.382812 349.136719 C 121.265625 348.996094 136.199219 348.15625 137.070312 342.761719 C 138.042969 336.742188 114.953125 334.597656 101.621094 332.214844 Z M 71.625 31.660156 C 66.757812 39.097656 68.101562 72.871094 74.246094 71.464844 C 82.578125 69.558594 83.589844 47.929688 90.015625 40.421875 C 97.8125 31.316406 130.078125 35.058594 133.402344 29.160156 C 138.640625 19.863281 80.671875 17.835938 71.625 31.660156 Z M 150.484375 34.875 C 154.046875 35.058594 159.332031 32.269531 159.238281 28.851562 C 159.148438 25.640625 156.480469 21.894531 150.882812 21.691406 C 146.613281 21.539062 142.296875 25.195312 142.316406 27.875 C 142.34375 31.546875 146.023438 34.777344 150.484375 34.875 Z M 150.484375 34.875 " fill-opacity="1" fill-rule="nonzero"/><path fill="#59524b" d="M 103.585938 169.0625 C 103.378906 163.152344 103.175781 157.238281 102.96875 151.328125 C 102.875 148.503906 107.25 148.515625 107.347656 151.328125 C 107.550781 157.238281 107.753906 163.152344 107.960938 169.0625 C 108.058594 171.886719 103.679688 171.875 103.585938 169.0625 Z M 163.203125 164.414062 C 161.542969 163.792969 159.855469 163.4375 158.152344 163.308594 C 160.703125 160.015625 162.722656 155.925781 160.773438 152.578125 C 159.441406 150.28125 156.621094 149.671875 154.230469 150.460938 C 151.441406 151.378906 150 154.066406 148.914062 156.585938 C 147.808594 159.144531 151.574219 161.378906 152.691406 158.796875 C 153.238281 157.523438 153.800781 155.871094 154.964844 155.023438 C 156.929688 153.589844 157.308594 155.460938 156.734375 157.007812 C 155.691406 159.804688 153.425781 162.304688 151.304688 164.324219 C 149.652344 165.894531 151.386719 168.449219 153.433594 167.984375 C 156.394531 167.3125 159.207031 167.582031 162.039062 168.636719 C 164.683594 169.621094 165.824219 165.390625 163.203125 164.414062 Z M 200.214844 157.726562 C 200.800781 156.964844 204.019531 154.359375 205.058594 155.667969 C 205.8125 156.613281 203.5 158.460938 202.957031 158.957031 C 201.660156 160.140625 202.589844 162.953125 204.5 162.695312 C 205.625 162.546875 207.382812 162.109375 207.828125 163.472656 C 208.167969 164.515625 207.359375 165.460938 206.527344 165.960938 C 204.328125 167.273438 201.441406 166.371094 199.167969 165.789062 C 196.441406 165.085938 195.277344 169.308594 198.007812 170.011719 C 202.671875 171.210938 209.144531 171.90625 211.667969 166.640625 C 212.597656 164.695312 212.4375 162.261719 211.222656 160.476562 C 210.574219 159.519531 209.703125 158.925781 208.730469 158.585938 C 209.816406 156.425781 209.996094 153.996094 207.75 152.183594 C 204.074219 149.214844 198.789062 152.453125 196.4375 155.519531 C 194.722656 157.75 198.519531 159.933594 200.214844 157.726562 Z M 112.355469 211.675781 C 111.480469 211.671875 110.601562 211.667969 109.722656 211.664062 C 109.828125 213.40625 109.929688 215.148438 110.035156 216.886719 C 110.199219 219.707031 105.824219 219.691406 105.65625 216.886719 C 105.554688 215.140625 105.453125 213.394531 105.347656 211.644531 C 103.003906 211.636719 100.660156 211.625 98.3125 211.613281 C 96.65625 211.609375 95.589844 209.757812 96.425781 208.320312 C 98.039062 205.542969 99.910156 202.929688 102.070312 200.546875 C 103.507812 198.964844 105.386719 196.898438 107.632812 198.46875 C 109.839844 200.011719 109.28125 204.199219 109.417969 206.476562 C 109.433594 206.746094 109.449219 207.015625 109.464844 207.28125 C 110.429688 207.285156 111.394531 207.289062 112.359375 207.292969 C 115.175781 207.308594 115.171875 211.6875 112.355469 211.675781 Z M 102.285156 207.253906 C 103.21875 207.257812 104.152344 207.261719 105.089844 207.265625 C 105.035156 206.371094 104.984375 205.480469 104.929688 204.585938 C 104.914062 204.335938 104.886719 204.078125 104.863281 203.816406 C 104.300781 204.507812 103.789062 205.234375 103.394531 205.742188 C 103.007812 206.234375 102.640625 206.738281 102.285156 207.253906 Z M 158.679688 206.75 C 157.816406 206.566406 156.921875 206.464844 156.035156 206.492188 C 155.644531 206.5 154.558594 206.824219 153.859375 206.910156 C 154.371094 206.519531 154.039062 204.65625 154.035156 204.214844 C 154.03125 203.863281 154.027344 203.511719 154.023438 203.15625 C 155.917969 203.332031 157.8125 203.402344 159.730469 203.320312 C 162.535156 203.195312 162.550781 198.816406 159.730469 198.9375 C 157.273438 199.046875 154.832031 198.96875 152.394531 198.609375 C 151.03125 198.40625 149.613281 199.15625 149.628906 200.71875 C 149.640625 202.320312 149.65625 203.925781 149.671875 205.527344 C 149.683594 206.8125 149.492188 208.457031 150.128906 209.636719 C 151.261719 211.742188 153.613281 211.160156 155.503906 210.941406 C 157.804688 210.671875 162.128906 212.28125 159.0625 214.847656 C 156.585938 216.921875 152.945312 214.5625 150.785156 213.128906 C 148.433594 211.566406 146.238281 215.359375 148.578125 216.910156 C 151.578125 218.902344 155.292969 220.746094 158.988281 219.726562 C 161.9375 218.914062 164.515625 216.105469 164.519531 212.957031 C 164.519531 209.648438 161.699219 207.386719 158.679688 206.75 Z M 195.054688 211.488281 C 194.582031 205.875 197.652344 200.4375 202.453125 197.632812 C 204.894531 196.207031 207.09375 199.992188 204.660156 201.414062 C 201.316406 203.371094 198.136719 208.710938 199.503906 212.789062 C 201.113281 208.769531 205.996094 206.308594 210.210938 208.796875 C 215.722656 212.054688 210.847656 219.152344 206.386719 220.441406 C 200.363281 222.179688 195.53125 217.1875 195.054688 211.488281 Z M 203.367188 216.25 C 205.222656 216.558594 207.265625 215.863281 207.945312 213.933594 C 208.679688 211.863281 206.054688 211.929688 204.808594 212.707031 C 203.546875 213.488281 203.25 214.878906 203.367188 216.25 Z M 109.25 248.527344 C 106.324219 248.398438 103.394531 248.269531 100.464844 248.140625 C 97.648438 248.019531 97.65625 252.398438 100.464844 252.523438 C 102.160156 252.597656 103.855469 252.671875 105.550781 252.746094 C 106.144531 252.769531 107.6875 252.613281 108.824219 252.644531 C 108.53125 254.390625 107.851562 256.257812 107.5 257.847656 C 106.980469 260.195312 106.460938 262.542969 105.941406 264.890625 C 105.335938 267.640625 109.554688 268.8125 110.160156 266.058594 C 110.785156 263.238281 111.40625 260.421875 112.027344 257.605469 C 112.339844 256.195312 112.652344 254.785156 112.960938 253.378906 C 113.164062 252.453125 113.554688 251.359375 113.265625 250.402344 C 112.71875 248.589844 110.800781 248.59375 109.25 248.527344 Z M 146.925781 258.558594 C 147.519531 257.035156 148.550781 255.839844 149.847656 254.996094 C 148.359375 253.570312 147.371094 251.640625 147.511719 249.523438 C 147.921875 243.417969 155.453125 242.695312 159.046875 246.460938 C 159.183594 246.605469 159.289062 246.757812 159.378906 246.910156 C 161.234375 249.128906 161.179688 252.375 159.648438 254.761719 C 160.441406 255.175781 161.15625 255.722656 161.699219 256.53125 C 165.066406 261.542969 159.972656 266.621094 155.082031 267.246094 C 149.980469 267.898438 144.792969 264.050781 146.925781 258.558594 Z M 155.457031 257.652344 C 153.257812 258.203125 150.109375 258.816406 150.828125 261.421875 C 151.644531 264.359375 157.457031 262.894531 158.21875 260.601562 C 158.703125 259.148438 157.207031 258.292969 155.457031 257.652344 Z M 154.875 253.035156 C 154.96875 253.074219 155.070312 253.113281 155.164062 253.148438 C 155.5 252.964844 155.796875 252.714844 156.023438 252.351562 C 156.367188 251.792969 156.8125 250.351562 156.199219 249.773438 C 156.117188 249.703125 156.03125 249.640625 155.953125 249.558594 C 154.964844 248.523438 152.625 247.503906 151.964844 249.515625 C 151.394531 251.253906 153.601562 252.496094 154.875 253.035156 Z M 205.675781 257.265625 C 202.179688 258.296875 198.390625 257.933594 196.285156 254.355469 C 193.507812 249.632812 198.050781 244.792969 202.875 244.875 C 207.8125 244.960938 211.523438 249.1875 211.027344 254.078125 C 210.503906 259.234375 206.683594 265.148438 201.96875 267.378906 C 199.433594 268.578125 197.214844 264.800781 199.761719 263.597656 C 201.5625 262.742188 204.179688 260.097656 205.675781 257.265625 Z M 206.671875 252.125 C 206.445312 251.308594 205.957031 250.585938 205.128906 250.015625 C 203.589844 248.960938 198.5 249.105469 200.0625 252.144531 C 201.316406 254.582031 204.617188 253.285156 206.671875 252.125 Z M 163.144531 301.285156 C 163.242188 305.765625 161.203125 312.089844 155.707031 311.964844 C 150.1875 311.839844 146.589844 305.273438 146.613281 300.34375 C 146.640625 295.453125 149.78125 290.15625 155.046875 290.011719 C 155.34375 290.003906 155.605469 290.054688 155.839844 290.136719 C 161.199219 290.820312 163.039062 296.347656 163.144531 301.285156 Z M 155.101562 294.441406 C 155.023438 294.4375 154.957031 294.417969 154.882812 294.410156 C 152.253906 294.621094 151.015625 298.050781 150.988281 300.34375 C 150.960938 302.691406 152.738281 307.582031 155.707031 307.585938 C 160.414062 307.589844 159.863281 294.632812 155.101562 294.441406 Z M 211.183594 294.582031 C 206.246094 294.820312 201.308594 294.957031 196.363281 294.988281 C 193.550781 295.007812 193.542969 299.386719 196.363281 299.367188 C 201.308594 299.335938 206.246094 299.199219 211.183594 298.960938 C 213.984375 298.824219 214 294.441406 211.183594 294.582031 Z M 211.179688 303.429688 C 206.273438 303 201.425781 303.222656 196.5625 303.988281 C 193.789062 304.421875 194.96875 308.644531 197.726562 308.210938 C 202.191406 307.511719 206.679688 307.414062 211.179688 307.808594 C 213.984375 308.054688 213.96875 303.671875 211.179688 303.429688 Z M 244.128906 162.148438 C 245.964844 162.136719 247.796875 162.148438 249.628906 162.15625 C 249.84375 164.042969 250.0625 165.929688 250.28125 167.816406 C 250.601562 170.582031 254.980469 170.613281 254.65625 167.816406 C 254.4375 165.9375 254.222656 164.058594 254.003906 162.179688 C 256.480469 162.207031 258.957031 162.242188 261.433594 162.304688 C 264.25 162.375 264.25 157.992188 261.433594 157.925781 C 258.789062 157.859375 256.144531 157.816406 253.5 157.789062 C 253.25 155.644531 253.003906 153.5 252.757812 151.351562 C 252.4375 148.585938 248.058594 148.550781 248.378906 151.351562 C 248.628906 153.492188 248.875 155.632812 249.121094 157.773438 C 247.457031 157.769531 245.792969 157.757812 244.128906 157.765625 C 241.316406 157.785156 241.308594 162.164062 244.128906 162.148438 Z M 260.191406 210.835938 C 263 210.753906 263.011719 206.371094 260.191406 206.453125 C 255.289062 206.59375 250.40625 206.339844 245.554688 205.601562 C 242.796875 205.179688 241.609375 209.398438 244.390625 209.824219 C 249.632812 210.621094 254.890625 210.988281 260.191406 210.835938 Z M 248.957031 267.503906 C 250.351562 265.308594 251.789062 263.140625 253.246094 260.988281 C 255.28125 262.253906 257.3125 263.523438 259.34375 264.792969 C 261.742188 266.285156 263.941406 262.5 261.554688 261.007812 C 259.613281 259.796875 257.671875 258.585938 255.730469 257.378906 C 257.3125 255.121094 258.921875 252.878906 260.574219 250.671875 C 262.261719 248.414062 258.464844 246.226562 256.796875 248.460938 C 255.167969 250.636719 253.585938 252.84375 252.027344 255.066406 C 250.089844 253.855469 248.152344 252.648438 246.214844 251.441406 C 243.816406 249.945312 241.617188 253.734375 244.007812 255.222656 C 245.851562 256.375 247.695312 257.523438 249.539062 258.671875 C 248.054688 260.859375 246.597656 263.0625 245.179688 265.292969 C 243.664062 267.679688 247.449219 269.878906 248.957031 267.503906 Z M 261.011719 298.5 C 255.378906 298.3125 249.757812 297.945312 244.148438 297.398438 C 241.347656 297.125 241.367188 301.503906 244.148438 301.777344 C 249.757812 302.324219 255.378906 302.691406 261.011719 302.878906 C 263.828125 302.972656 263.824219 298.589844 261.011719 298.5 Z M 237.488281 82.222656 C 237.917969 76.132812 241.871094 69.332031 248.59375 69.304688 C 248.835938 69.300781 249.054688 69.34375 249.253906 69.402344 C 256.945312 69.957031 259.257812 78.367188 259.261719 85.023438 C 259.269531 91.03125 256.382812 99.625 248.859375 98.832031 C 241.523438 98.054688 237.015625 88.871094 237.488281 82.222656 Z M 248.703125 94.367188 C 253.820312 95.664062 254.953125 88.023438 254.890625 84.597656 C 254.8125 80.550781 253.867188 73.855469 248.671875 73.753906 C 248.535156 73.75 248.414062 73.730469 248.292969 73.707031 C 244.1875 73.964844 242.050781 78.964844 241.84375 82.601562 C 241.601562 86.839844 244.152344 93.21875 248.703125 94.367188 Z M 248.703125 94.367188 " fill-opacity="1" fill-rule="nonzero"/></svg>