<svg xmlns="http://www.w3.org/2000/svg" xmlns:xlink="http://www.w3.org/1999/xlink" width="500" zoomAndPan="magnify" viewBox="0 0 375 374.999991" height="500" preserveAspectRatio="xMidYMid meet" version="1.0"><rect x="-37.5" width="450" fill="#ffffff" y="-37.499999" height="449.999989" fill-opacity="1"/><rect x="-37.5" width="450" fill="#ffffff" y="-37.499999" height="449.999989" fill-opacity="1"/><rect x="-37.5" width="450" fill="#86aadf" y="-37.499999" height="449.999989" fill-opacity="1"/><path fill="#6a7d93" d="M 277.035156 259.050781 L 239.929688 209.539062 L 202.828125 160.027344 C 202.789062 159.972656 202.738281 159.917969 202.699219 159.863281 C 193.066406 147.101562 186.746094 132.164062 184.839844 116.285156 L 175.871094 41.574219 C 182.4375 40.785156 187.121094 34.824219 186.328125 28.257812 L 185.726562 23.214844 C 184.933594 16.648438 178.972656 11.964844 172.410156 12.757812 L 106.472656 20.667969 C 99.90625 21.460938 95.222656 27.421875 96.015625 33.984375 L 96.617188 39.027344 C 97.410156 45.59375 103.371094 50.277344 109.933594 49.484375 L 118.902344 124.199219 C 120.804688 140.066406 118.199219 156.085938 111.859375 170.757812 C 111.835938 170.820312 111.804688 170.882812 111.78125 170.945312 L 87.453125 227.835938 L 63.125 284.730469 C 47.097656 322.203125 77.644531 362.972656 118.121094 358.117188 L 240.988281 343.375 C 281.453125 338.519531 301.492188 291.675781 277.050781 259.050781 Z M 277.035156 259.050781 " fill-opacity="1" fill-rule="nonzero"/><path fill="#fc954f" d="M 161.058594 252.035156 C 147.140625 252.824219 134.664062 247.003906 122.59375 241.371094 C 132.367188 241.914062 142.511719 239.988281 152.191406 235.308594 C 163.972656 229.625 174.335938 221.320312 186.3125 215.984375 C 198.457031 210.574219 210.054688 210.996094 222.109375 216.496094 C 222.109375 216.496094 222.128906 216.496094 222.136719 216.503906 C 222.941406 216.863281 223.703125 217.300781 224.40625 217.820312 C 218.75 244.316406 184.527344 251.023438 161.066406 252.027344 Z M 161.058594 252.035156 " fill-opacity="1" fill-rule="nonzero"/><path fill="#fdc54c" d="M 78.484375 292.003906 L 98.160156 245.996094 C 100.316406 240.957031 106.503906 236.242188 111.828125 237.527344 C 114.992188 238.285156 117.851562 239.328125 120.859375 240.464844 C 122.160156 240.957031 123.445312 241.515625 124.707031 242.109375 C 136.167969 247.46875 147.871094 252.785156 161.050781 252.035156 C 184.511719 251.03125 218.734375 244.324219 224.390625 217.828125 C 225.136719 218.375 225.816406 219.015625 226.371094 219.769531 L 226.945312 220.527344 L 263.832031 269.761719 C 280.796875 292.40625 266.894531 324.921875 238.796875 328.289062 L 116.640625 342.953125 C 88.550781 346.320312 67.335938 318.019531 78.46875 292.007812 Z M 78.484375 292.003906 " fill-opacity="1" fill-rule="nonzero"/><path fill="#fc954f" d="M 148.957031 221.078125 C 148.957031 221.601562 148.90625 222.121094 148.804688 222.632812 C 148.703125 223.148438 148.550781 223.648438 148.351562 224.132812 C 148.148438 224.617188 147.902344 225.074219 147.613281 225.511719 C 147.320312 225.949219 146.992188 226.351562 146.621094 226.722656 C 146.25 227.09375 145.847656 227.421875 145.410156 227.714844 C 144.976562 228.003906 144.515625 228.25 144.03125 228.453125 C 143.546875 228.652344 143.046875 228.804688 142.535156 228.90625 C 142.019531 229.007812 141.5 229.058594 140.976562 229.058594 C 140.453125 229.058594 139.933594 229.007812 139.417969 228.90625 C 138.90625 228.804688 138.40625 228.652344 137.921875 228.453125 C 137.4375 228.25 136.976562 228.003906 136.542969 227.714844 C 136.105469 227.421875 135.703125 227.09375 135.332031 226.722656 C 134.960938 226.351562 134.628906 225.949219 134.339844 225.511719 C 134.046875 225.074219 133.800781 224.617188 133.601562 224.132812 C 133.402344 223.648438 133.25 223.148438 133.148438 222.632812 C 133.046875 222.121094 132.996094 221.601562 132.996094 221.078125 C 132.996094 220.554688 133.046875 220.035156 133.148438 219.519531 C 133.25 219.007812 133.402344 218.507812 133.601562 218.023438 C 133.800781 217.539062 134.046875 217.078125 134.339844 216.644531 C 134.628906 216.207031 134.960938 215.804688 135.332031 215.433594 C 135.703125 215.0625 136.105469 214.730469 136.542969 214.441406 C 136.976562 214.148438 137.4375 213.902344 137.921875 213.703125 C 138.40625 213.503906 138.90625 213.351562 139.417969 213.25 C 139.933594 213.148438 140.453125 213.09375 140.976562 213.09375 C 141.5 213.09375 142.019531 213.148438 142.535156 213.25 C 143.046875 213.351562 143.546875 213.503906 144.03125 213.703125 C 144.515625 213.902344 144.976562 214.148438 145.410156 214.441406 C 145.847656 214.730469 146.25 215.0625 146.621094 215.433594 C 146.992188 215.804688 147.320312 216.207031 147.613281 216.644531 C 147.902344 217.078125 148.148438 217.539062 148.351562 218.023438 C 148.550781 218.507812 148.703125 219.007812 148.804688 219.519531 C 148.90625 220.035156 148.957031 220.554688 148.957031 221.078125 Z M 148.957031 221.078125 " fill-opacity="1" fill-rule="nonzero"/><path fill="#fc954f" d="M 156.242188 172.527344 C 156.242188 173.386719 156.160156 174.234375 155.992188 175.074219 C 155.824219 175.917969 155.578125 176.734375 155.25 177.523438 C 154.921875 178.316406 154.519531 179.070312 154.042969 179.78125 C 153.566406 180.496094 153.023438 181.15625 152.417969 181.761719 C 151.8125 182.367188 151.152344 182.910156 150.441406 183.386719 C 149.726562 183.863281 148.972656 184.261719 148.183594 184.589844 C 147.390625 184.917969 146.574219 185.167969 145.734375 185.335938 C 144.890625 185.503906 144.042969 185.585938 143.183594 185.585938 C 142.328125 185.585938 141.480469 185.503906 140.636719 185.335938 C 139.796875 185.167969 138.980469 184.917969 138.1875 184.589844 C 137.394531 184.261719 136.644531 183.863281 135.929688 183.386719 C 135.21875 182.910156 134.558594 182.367188 133.953125 181.761719 C 133.347656 181.15625 132.804688 180.496094 132.328125 179.78125 C 131.851562 179.070312 131.449219 178.316406 131.121094 177.523438 C 130.792969 176.734375 130.546875 175.917969 130.378906 175.074219 C 130.210938 174.234375 130.128906 173.386719 130.128906 172.527344 C 130.128906 171.671875 130.210938 170.820312 130.378906 169.980469 C 130.546875 169.140625 130.792969 168.324219 131.121094 167.53125 C 131.449219 166.738281 131.851562 165.988281 132.328125 165.273438 C 132.804688 164.5625 133.347656 163.902344 133.953125 163.292969 C 134.558594 162.6875 135.21875 162.148438 135.929688 161.671875 C 136.644531 161.195312 137.394531 160.792969 138.1875 160.464844 C 138.980469 160.136719 139.796875 159.886719 140.636719 159.722656 C 141.480469 159.554688 142.328125 159.46875 143.183594 159.46875 C 144.042969 159.46875 144.890625 159.554688 145.734375 159.722656 C 146.574219 159.886719 147.390625 160.136719 148.183594 160.464844 C 148.972656 160.792969 149.726562 161.195312 150.441406 161.671875 C 151.152344 162.148438 151.8125 162.6875 152.417969 163.292969 C 153.023438 163.902344 153.566406 164.5625 154.042969 165.273438 C 154.519531 165.988281 154.921875 166.738281 155.25 167.53125 C 155.578125 168.324219 155.824219 169.140625 155.992188 169.980469 C 156.160156 170.820312 156.242188 171.671875 156.242188 172.527344 Z M 156.242188 172.527344 " fill-opacity="1" fill-rule="nonzero"/><path fill="#fdc54c" d="M 194.226562 190.878906 C 194.226562 191.40625 194.175781 191.925781 194.070312 192.4375 C 193.96875 192.953125 193.820312 193.449219 193.617188 193.933594 C 193.417969 194.417969 193.171875 194.878906 192.878906 195.316406 C 192.589844 195.75 192.257812 196.152344 191.886719 196.523438 C 191.515625 196.894531 191.113281 197.226562 190.679688 197.515625 C 190.242188 197.808594 189.78125 198.054688 189.296875 198.253906 C 188.8125 198.457031 188.316406 198.605469 187.800781 198.710938 C 187.285156 198.8125 186.769531 198.863281 186.242188 198.863281 C 185.71875 198.863281 185.199219 198.8125 184.6875 198.710938 C 184.171875 198.605469 183.671875 198.457031 183.1875 198.253906 C 182.703125 198.054688 182.246094 197.808594 181.808594 197.515625 C 181.375 197.226562 180.96875 196.894531 180.597656 196.523438 C 180.230469 196.152344 179.898438 195.75 179.605469 195.316406 C 179.316406 194.878906 179.070312 194.417969 178.871094 193.933594 C 178.667969 193.449219 178.515625 192.953125 178.414062 192.4375 C 178.3125 191.925781 178.261719 191.40625 178.261719 190.878906 C 178.261719 190.355469 178.3125 189.835938 178.414062 189.324219 C 178.515625 188.808594 178.667969 188.308594 178.871094 187.828125 C 179.070312 187.34375 179.316406 186.882812 179.605469 186.445312 C 179.898438 186.011719 180.230469 185.605469 180.597656 185.238281 C 180.96875 184.867188 181.375 184.535156 181.808594 184.242188 C 182.246094 183.953125 182.703125 183.707031 183.1875 183.507812 C 183.671875 183.304688 184.171875 183.15625 184.6875 183.050781 C 185.199219 182.949219 185.71875 182.898438 186.242188 182.898438 C 186.769531 182.898438 187.285156 182.949219 187.800781 183.050781 C 188.316406 183.15625 188.8125 183.304688 189.296875 183.507812 C 189.78125 183.707031 190.242188 183.953125 190.679688 184.242188 C 191.113281 184.535156 191.515625 184.867188 191.886719 185.238281 C 192.257812 185.605469 192.589844 186.011719 192.878906 186.445312 C 193.171875 186.882812 193.417969 187.34375 193.617188 187.828125 C 193.820312 188.308594 193.96875 188.808594 194.070312 189.324219 C 194.175781 189.835938 194.226562 190.355469 194.226562 190.878906 Z M 194.226562 190.878906 " fill-opacity="1" fill-rule="nonzero"/><path fill="#fc954f" d="M 160.753906 194.5 C 160.753906 194.804688 160.726562 195.105469 160.664062 195.40625 C 160.605469 195.703125 160.519531 195.996094 160.402344 196.277344 C 160.285156 196.558594 160.140625 196.828125 159.972656 197.082031 C 159.800781 197.332031 159.609375 197.570312 159.394531 197.785156 C 159.179688 198 158.945312 198.191406 158.691406 198.363281 C 158.4375 198.53125 158.167969 198.675781 157.886719 198.792969 C 157.605469 198.90625 157.316406 198.996094 157.015625 199.054688 C 156.71875 199.113281 156.414062 199.144531 156.109375 199.144531 C 155.804688 199.144531 155.503906 199.113281 155.203125 199.054688 C 154.90625 198.996094 154.613281 198.90625 154.332031 198.792969 C 154.050781 198.675781 153.78125 198.53125 153.527344 198.363281 C 153.277344 198.191406 153.039062 198 152.824219 197.785156 C 152.609375 197.570312 152.417969 197.332031 152.246094 197.082031 C 152.078125 196.828125 151.933594 196.558594 151.816406 196.277344 C 151.703125 195.996094 151.613281 195.703125 151.554688 195.40625 C 151.496094 195.105469 151.464844 194.804688 151.464844 194.5 C 151.464844 194.195312 151.496094 193.894531 151.554688 193.59375 C 151.613281 193.292969 151.703125 193.003906 151.820312 192.722656 C 151.933594 192.441406 152.078125 192.171875 152.246094 191.917969 C 152.417969 191.664062 152.609375 191.429688 152.824219 191.214844 C 153.039062 191 153.277344 190.808594 153.527344 190.636719 C 153.78125 190.46875 154.050781 190.324219 154.332031 190.207031 C 154.613281 190.089844 154.90625 190.003906 155.203125 189.945312 C 155.503906 189.882812 155.804688 189.855469 156.109375 189.855469 C 156.414062 189.855469 156.71875 189.882812 157.015625 189.945312 C 157.316406 190.003906 157.605469 190.089844 157.886719 190.207031 C 158.167969 190.324219 158.4375 190.46875 158.691406 190.636719 C 158.945312 190.808594 159.179688 191 159.394531 191.214844 C 159.609375 191.429688 159.800781 191.664062 159.972656 191.917969 C 160.140625 192.171875 160.285156 192.441406 160.402344 192.722656 C 160.519531 193.003906 160.605469 193.292969 160.664062 193.59375 C 160.726562 193.894531 160.753906 194.195312 160.753906 194.5 Z M 160.753906 194.5 " fill-opacity="1" fill-rule="nonzero"/><path fill="#fdc54c" d="M 123.585938 211.003906 C 123.585938 211.308594 123.558594 211.609375 123.496094 211.910156 C 123.4375 212.210938 123.351562 212.5 123.234375 212.78125 C 123.117188 213.0625 122.972656 213.332031 122.804688 213.585938 C 122.632812 213.839844 122.441406 214.074219 122.226562 214.289062 C 122.011719 214.503906 121.777344 214.695312 121.523438 214.867188 C 121.269531 215.035156 121 215.179688 120.71875 215.296875 C 120.4375 215.414062 120.148438 215.5 119.847656 215.558594 C 119.550781 215.621094 119.246094 215.648438 118.941406 215.648438 C 118.636719 215.648438 118.335938 215.621094 118.035156 215.558594 C 117.738281 215.5 117.445312 215.414062 117.164062 215.296875 C 116.882812 215.179688 116.613281 215.035156 116.359375 214.867188 C 116.109375 214.695312 115.871094 214.503906 115.65625 214.289062 C 115.441406 214.074219 115.25 213.839844 115.078125 213.585938 C 114.910156 213.332031 114.765625 213.0625 114.652344 212.78125 C 114.535156 212.5 114.445312 212.210938 114.386719 211.910156 C 114.328125 211.609375 114.296875 211.308594 114.296875 211.003906 C 114.296875 210.699219 114.328125 210.398438 114.386719 210.097656 C 114.445312 209.796875 114.535156 209.507812 114.652344 209.226562 C 114.765625 208.945312 114.910156 208.675781 115.078125 208.421875 C 115.25 208.167969 115.441406 207.933594 115.65625 207.71875 C 115.871094 207.503906 116.109375 207.3125 116.359375 207.140625 C 116.613281 206.972656 116.882812 206.828125 117.164062 206.710938 C 117.445312 206.597656 117.738281 206.507812 118.035156 206.449219 C 118.335938 206.390625 118.636719 206.359375 118.941406 206.359375 C 119.246094 206.359375 119.550781 206.390625 119.847656 206.449219 C 120.148438 206.507812 120.4375 206.597656 120.71875 206.710938 C 121 206.828125 121.269531 206.972656 121.523438 207.140625 C 121.777344 207.3125 122.011719 207.503906 122.226562 207.71875 C 122.441406 207.933594 122.632812 208.167969 122.804688 208.421875 C 122.972656 208.675781 123.117188 208.945312 123.234375 209.226562 C 123.351562 209.507812 123.4375 209.796875 123.496094 210.097656 C 123.558594 210.398438 123.585938 210.699219 123.585938 211.003906 Z M 123.585938 211.003906 " fill-opacity="1" fill-rule="nonzero"/><path fill="#fdc54c" d="M 174.046875 145.574219 C 174.046875 145.878906 174.019531 146.179688 173.957031 146.480469 C 173.898438 146.78125 173.8125 147.070312 173.695312 147.351562 C 173.578125 147.632812 173.433594 147.902344 173.265625 148.15625 C 173.09375 148.410156 172.902344 148.644531 172.6875 148.859375 C 172.472656 149.074219 172.238281 149.265625 171.984375 149.4375 C 171.730469 149.605469 171.460938 149.75 171.179688 149.867188 C 170.898438 149.984375 170.609375 150.070312 170.308594 150.128906 C 170.007812 150.191406 169.707031 150.21875 169.402344 150.21875 C 169.097656 150.21875 168.796875 150.191406 168.496094 150.128906 C 168.195312 150.070312 167.90625 149.984375 167.625 149.867188 C 167.34375 149.75 167.074219 149.605469 166.820312 149.4375 C 166.566406 149.265625 166.332031 149.074219 166.117188 148.859375 C 165.902344 148.644531 165.710938 148.410156 165.539062 148.15625 C 165.371094 147.902344 165.226562 147.632812 165.109375 147.351562 C 164.996094 147.070312 164.90625 146.78125 164.847656 146.480469 C 164.789062 146.179688 164.757812 145.878906 164.757812 145.574219 C 164.757812 145.269531 164.789062 144.96875 164.847656 144.667969 C 164.90625 144.367188 164.996094 144.078125 165.109375 143.796875 C 165.226562 143.515625 165.371094 143.246094 165.539062 142.992188 C 165.710938 142.738281 165.902344 142.503906 166.117188 142.289062 C 166.332031 142.074219 166.566406 141.882812 166.820312 141.710938 C 167.074219 141.542969 167.34375 141.398438 167.625 141.28125 C 167.90625 141.167969 168.195312 141.078125 168.496094 141.019531 C 168.796875 140.960938 169.097656 140.929688 169.402344 140.929688 C 169.707031 140.929688 170.007812 140.960938 170.308594 141.019531 C 170.609375 141.078125 170.898438 141.167969 171.179688 141.28125 C 171.460938 141.398438 171.730469 141.542969 171.984375 141.710938 C 172.238281 141.882812 172.472656 142.074219 172.6875 142.289062 C 172.902344 142.503906 173.09375 142.738281 173.265625 142.992188 C 173.433594 143.246094 173.578125 143.515625 173.695312 143.796875 C 173.8125 144.078125 173.898438 144.367188 173.957031 144.667969 C 174.019531 144.96875 174.046875 145.269531 174.046875 145.574219 Z M 174.046875 145.574219 " fill-opacity="1" fill-rule="nonzero"/><path fill="#def3fc" d="M 163.246094 58.925781 C 164.921875 72.914062 166.605469 86.914062 168.28125 100.902344 L 169.730469 112.949219 C 169.855469 114 170.539062 114.90625 171.691406 114.90625 C 172.652344 114.90625 173.773438 114.007812 173.648438 112.949219 C 171.972656 98.960938 170.289062 84.960938 168.613281 70.972656 L 167.164062 58.925781 C 167.035156 57.875 166.355469 56.964844 165.203125 56.964844 C 164.242188 56.964844 163.121094 57.867188 163.246094 58.925781 Z M 163.246094 58.925781 " fill-opacity="1" fill-rule="nonzero"/><path fill="#def3fc" d="M 199.386719 202.761719 C 212.671875 220.679688 225.957031 238.59375 239.242188 256.5 C 242.972656 261.527344 246.699219 266.554688 250.429688 271.585938 C 251.054688 272.429688 252.121094 272.863281 253.105469 272.289062 C 253.945312 271.804688 254.445312 270.464844 253.8125 269.609375 C 240.527344 251.695312 227.242188 233.78125 213.957031 215.875 L 202.769531 200.789062 C 202.144531 199.945312 201.078125 199.511719 200.09375 200.085938 C 199.253906 200.570312 198.753906 201.910156 199.386719 202.761719 Z M 199.386719 202.761719 " fill-opacity="1" fill-rule="nonzero"/></svg>