<svg xmlns="http://www.w3.org/2000/svg" xmlns:xlink="http://www.w3.org/1999/xlink" width="500" zoomAndPan="magnify" viewBox="0 0 375 374.999991" height="500" preserveAspectRatio="xMidYMid meet" version="1.0"><defs><clipPath id="1c4fe09834"><path d="M 8.914062 20.914062 L 365.796875 20.914062 L 365.796875 353.898438 L 8.914062 353.898438 Z M 8.914062 20.914062 " clip-rule="nonzero"/></clipPath></defs><rect x="-37.5" width="450" fill="#ffffff" y="-37.499999" height="449.999989" fill-opacity="1"/><rect x="-37.5" width="450" fill="#ffffff" y="-37.499999" height="449.999989" fill-opacity="1"/><rect x="-37.5" width="450" fill="#dde7f2" y="-37.499999" height="449.999989" fill-opacity="1"/><path fill="#86aadf" d="M 319.328125 252.539062 C 308.261719 259.179688 295.871094 262.671875 283.109375 264.25 C 279.058594 242.882812 270.539062 220.621094 263.359375 204.089844 C 268.890625 196.835938 274.203125 189.421875 279.242188 181.816406 C 282.402344 177.042969 285.695312 171.988281 288.941406 166.71875 C 300.984375 172.855469 312.246094 179.992188 322.3125 188.246094 C 347.226562 208.671875 348.675781 234.921875 319.328125 252.539062 Z M 266.238281 315.847656 C 243.960938 334.136719 208.417969 320.191406 188.164062 306 C 184.449219 303.398438 180.898438 300.601562 177.476562 297.667969 C 187.375 288.320312 196.585938 278.617188 204.871094 269.945312 C 224.394531 272.824219 243.410156 274.292969 260.871094 274.292969 C 266.417969 274.292969 272.230469 274.042969 278.125 273.472656 C 280.570312 289.996094 278.550781 305.742188 266.238281 315.847656 Z M 85.203125 316.925781 C 76.042969 297.628906 86.140625 267.382812 98.972656 240.273438 C 108.367188 244.410156 118.152344 248.183594 128.183594 251.589844 C 137.992188 268.296875 149.367188 284.1875 162.480469 297.417969 C 129.960938 324.425781 97.136719 342.074219 85.203125 316.925781 Z M 64.339844 210.28125 C 43.445312 196.339844 22.15625 174.996094 49.46875 155.421875 C 58.835938 148.703125 69.960938 144.183594 81.761719 141.152344 C 86.707031 157.730469 92.230469 172.339844 95.546875 181.210938 C 98.800781 189.921875 102.488281 199.222656 106.636719 208.761719 C 104.480469 212.804688 102.386719 216.839844 100.367188 220.855469 C 99.351562 222.871094 98.070312 225.429688 96.621094 228.398438 C 85.347656 223.082031 74.519531 217.078125 64.339844 210.28125 Z M 101.019531 50.0625 C 135.394531 50.0625 164.980469 70.285156 189.589844 98.191406 C 179.746094 107.019531 170.449219 116.652344 161.695312 126.828125 C 149.9375 126.464844 138.261719 126.660156 126.804688 127.410156 C 115.3125 128.164062 102.300781 128.886719 89.355469 130.761719 C 79.082031 96.824219 70.097656 50.0625 101.019531 50.0625 Z M 258.578125 193.441406 C 251.242188 177.546875 243.386719 161.738281 234.5 146.570312 C 249.417969 150.417969 264.023438 155.320312 277.800781 161.421875 C 271.449219 173.046875 264.691406 184.082031 258.578125 193.441406 Z M 195.589844 105.253906 C 202.640625 113.882812 209.253906 123.097656 215.421875 132.566406 C 201.648438 129.996094 187.71875 128.300781 173.835938 127.40625 C 174.164062 127.066406 174.484375 126.722656 174.8125 126.386719 C 181.179688 119.785156 188.128906 112.476562 195.589844 105.253906 Z M 113.171875 196.871094 C 108.398438 185.003906 104.050781 173.160156 99.914062 161.738281 C 98.3125 157.316406 95.21875 149.039062 91.921875 138.921875 C 108.882812 135.777344 126.601562 135.164062 142.136719 135.164062 C 146.214844 135.164062 150.367188 135.238281 154.566406 135.375 C 138.90625 154.757812 125.113281 175.78125 113.171875 196.871094 Z M 120.945312 238.605469 C 114.964844 236.390625 109.078125 234.003906 103.289062 231.449219 C 105.71875 226.628906 108.175781 221.96875 110.566406 217.554688 C 113.773438 224.542969 117.230469 231.605469 120.945312 238.605469 Z M 134.964844 243.464844 C 128.230469 231.382812 122.300781 218.734375 116.929688 205.996094 C 119.492188 201.398438 121.824219 197.253906 123.757812 193.714844 C 135.25 172.628906 149.777344 153.621094 165.890625 135.910156 C 184.316406 137.058594 203.492188 139.570312 222.402344 143.695312 C 234.441406 163.59375 244.566406 184.050781 252.730469 202.179688 C 247.003906 210.535156 242.332031 216.726562 239.875 219.554688 C 235.058594 225.085938 221.042969 241.199219 203.195312 259.425781 C 180.324219 255.816406 157.207031 250.667969 134.964844 243.464844 Z M 142.480469 256.148438 C 159.546875 261.246094 177.085938 265.300781 194.378906 268.269531 C 186.664062 275.882812 178.453125 283.625 170.105469 290.917969 C 159.601562 280.632812 150.5 268.835938 142.480469 256.148438 Z M 260.265625 219.476562 C 265.195312 231.164062 272.632812 248.003906 276.5 264.90625 C 265.109375 265.75 253.554688 265.253906 242.503906 264.257812 C 232.984375 263.398438 223.292969 262.3125 213.527344 260.957031 C 228.761719 245.367188 243.515625 229.183594 257.117188 212.105469 C 258.207031 214.625 259.261719 217.085938 260.265625 219.476562 Z M 273.199219 63.445312 C 317.660156 63.445312 304.242188 110.34375 282.273438 153.003906 C 264.785156 145.234375 246.324219 139.292969 227.441406 135.035156 C 219.871094 123.183594 211.5625 111.835938 202.226562 101.285156 C 201.863281 100.875 201.488281 100.453125 201.105469 100.027344 C 221.910156 80.757812 246.355469 63.445312 273.199219 63.445312 Z M 319.828125 173.683594 C 311.53125 168.078125 302.835938 163.027344 293.839844 158.488281 C 305.25 138.601562 314.710938 116.261719 313.242188 94.449219 C 310.542969 54.34375 271.890625 47.847656 240.667969 63.117188 C 224.378906 71.085938 209.175781 81.421875 195.050781 93.425781 C 170.933594 67.789062 126.101562 27.75 93.066406 40.023438 C 63.871094 50.867188 69.054688 94.878906 79.289062 132.476562 C 63.484375 135.625 48.414062 140.996094 37.050781 150.816406 C 10.957031 173.363281 33.578125 200.824219 55.40625 216.160156 C 66.496094 223.949219 78.988281 231 92.394531 237.28125 C 75.960938 272.785156 50.703125 339.605469 99.558594 339.605469 C 124.289062 339.605469 148.519531 323.617188 170 304.527344 C 189.425781 321.707031 212.378906 332.910156 239.347656 332.910156 C 280.617188 332.910156 288.699219 304.90625 284.476562 272.726562 C 306.871094 269.652344 329.59375 261.5 343.167969 243.753906 C 364.117188 216.367188 343.871094 189.910156 319.828125 173.683594 " fill-opacity="1" fill-rule="nonzero"/><path fill="#f46a61" d="M 220.941406 194.433594 C 219.132812 210.246094 205.050781 222.15625 190.125 225.773438 C 173.601562 229.773438 158.132812 216.835938 154.5625 201.113281 C 151.8125 188.992188 155.960938 177.15625 164.535156 169.082031 C 171.605469 156.671875 190.914062 154.828125 202.933594 160.394531 C 215.613281 166.265625 222.492188 180.832031 220.941406 194.433594 " fill-opacity="1" fill-rule="nonzero"/><g clip-path="url(#1c4fe09834)"><path fill="#2e2e30" d="M 320.019531 204.539062 C 314.59375 204.011719 310.296875 204.925781 305.261719 201.941406 C 300.5625 199.15625 298.109375 195.050781 295.886719 190.222656 C 295.464844 189.304688 294.007812 189.785156 294.03125 190.726562 C 294.167969 196.742188 298.570312 201.933594 303.507812 204.945312 C 308.007812 207.691406 315.875 210.066406 320.585938 206.644531 C 321.515625 205.96875 321.164062 204.652344 320.019531 204.539062 Z M 218.722656 223.273438 C 211.984375 225.746094 206.203125 230 199.160156 231.964844 C 191.683594 234.054688 184.308594 234 176.632812 234 C 175.265625 234 174.976562 236.023438 176.3125 236.390625 C 184.007812 238.507812 192.535156 237.664062 200.167969 235.632812 C 207.074219 233.796875 215.472656 230.699219 219.902344 224.804688 C 220.4375 224.085938 219.542969 222.976562 218.722656 223.273438 Z M 142.082031 22.210938 C 137.351562 20.46875 129.476562 19.921875 125.902344 24.210938 C 125.488281 24.710938 125.71875 25.625 126.472656 25.589844 C 129 25.480469 131.371094 24.503906 133.925781 24.457031 C 137.046875 24.40625 140.265625 25.199219 142.996094 26.710938 C 147.394531 29.144531 149.21875 36.007812 154.191406 36.964844 C 155.167969 37.152344 155.773438 36.257812 155.398438 35.390625 C 153.003906 29.800781 147.839844 24.328125 142.082031 22.210938 Z M 101.007812 59.320312 C 93.480469 60.414062 88.296875 70.011719 86.589844 76.628906 C 85.039062 82.640625 84.445312 94.355469 90.746094 98.027344 C 91.59375 98.515625 92.6875 97.890625 92.6875 96.910156 C 92.683594 94.015625 91.144531 91.363281 90.609375 88.523438 C 89.945312 84.984375 90.117188 81.324219 90.960938 77.832031 C 91.761719 74.507812 93.140625 71.339844 95.144531 68.558594 C 97.15625 65.765625 100 63.867188 102.125 61.234375 C 102.871094 60.308594 102.164062 59.152344 101.007812 59.320312 Z M 361.960938 208.5625 C 361.332031 207.308594 359.449219 208.199219 359.761719 209.488281 C 362.011719 218.691406 362.988281 227.691406 360.660156 237.007812 C 359.589844 241.300781 357.933594 245.410156 355.75 249.253906 C 353.5 253.207031 350.308594 256.511719 348.054688 260.433594 C 347.5 261.390625 348.585938 262.382812 349.515625 261.898438 C 357.839844 257.554688 362.539062 246.007812 364.496094 237.355469 C 366.628906 227.914062 366.375 217.335938 361.960938 208.5625 Z M 320.90625 61.949219 C 313.367188 51.75 301.453125 45.066406 288.832031 44.019531 C 287.753906 43.929688 287.546875 45.640625 288.578125 45.894531 C 300.558594 48.839844 312.289062 54.667969 319.21875 65.28125 C 323.058594 71.164062 324.859375 77.917969 325.5 84.863281 C 326.109375 91.503906 324.511719 98.757812 325.890625 105.21875 C 326.128906 106.34375 327.652344 106.152344 327.984375 105.21875 C 330.417969 98.351562 329.558594 88.695312 328.574219 81.574219 C 327.597656 74.488281 325.175781 67.722656 320.90625 61.949219 Z M 272.535156 333.863281 C 264.957031 337.519531 257.847656 341.507812 249.480469 343.148438 C 240.972656 344.816406 232.066406 344.539062 223.632812 342.613281 C 222.097656 342.261719 221.5 344.464844 222.984375 344.960938 C 239.003906 350.304688 261.59375 348.445312 273.796875 335.5 C 274.636719 334.613281 273.585938 333.355469 272.535156 333.863281 Z M 201.824219 341.351562 C 196.839844 338.328125 191.332031 336.402344 186.464844 333.113281 C 181.242188 329.585938 177.21875 325.023438 172.4375 321.015625 C 171.734375 320.425781 170.757812 321.148438 171.171875 321.996094 C 176.078125 331.992188 190.148438 342.234375 201.320312 343.207031 C 202.347656 343.296875 202.617188 341.832031 201.824219 341.351562 Z M 89.566406 349.875 C 75.714844 350.441406 65.625 343.066406 61.730469 329.632812 C 57.648438 315.535156 61.441406 301.089844 60.285156 286.789062 C 60.191406 285.582031 58.328125 285.136719 58.039062 286.484375 C 56.148438 295.269531 55.644531 304.828125 55.554688 313.800781 C 55.476562 321.445312 56.3125 329.097656 59.378906 336.164062 C 64.078125 347.007812 77.742188 358.863281 90.070312 351.734375 C 90.902344 351.25 90.570312 349.835938 89.566406 349.875 Z M 29.546875 209.371094 C 30.265625 210.011719 29.679688 211.222656 28.78125 211.226562 C 20.113281 211.242188 13.886719 201.464844 11.273438 194.265625 C 7.148438 182.890625 9.210938 170.777344 11.542969 159.273438 C 11.84375 157.804688 14.3125 158.140625 14.164062 159.628906 C 13.167969 169.6875 11.691406 180.597656 14.5625 190.472656 C 15.808594 194.746094 17.933594 198.851562 20.886719 202.195312 C 23.410156 205.054688 26.726562 206.867188 29.546875 209.371094 " fill-opacity="1" fill-rule="nonzero"/></g><path fill="#f6b737" d="M 136.15625 165.511719 C 132.097656 163.210938 127.371094 161.558594 122.757812 163.105469 C 120.832031 163.75 118.601562 165.175781 117.421875 167.023438 C 114.222656 171.167969 113.863281 177.835938 115.902344 183.054688 C 119.796875 193.027344 128.960938 193.785156 136.9375 187.785156 C 140.804688 184.871094 144.03125 180.753906 143.890625 175.675781 C 143.753906 170.773438 140.105469 167.757812 136.15625 165.511719 Z M 331.890625 173.324219 C 318.265625 155.460938 292.050781 176.4375 303.664062 191.792969 C 314.390625 205.980469 344.5 189.851562 331.890625 173.324219 Z M 144.351562 61.574219 C 136.332031 68.097656 123.171875 70.0625 118.222656 58.730469 C 115.605469 52.742188 117.199219 46.796875 121 42.535156 C 125.484375 33.316406 135.613281 28.988281 145.050781 36.050781 C 154.152344 42.867188 152.734375 54.753906 144.351562 61.574219 " fill-opacity="1" fill-rule="nonzero"/><path fill="#ffffff" d="M 132.050781 167.09375 C 131.105469 167.050781 130.445312 168.433594 131.230469 169.074219 C 133.054688 170.554688 134.925781 171.511719 136.039062 173.722656 C 137.007812 175.648438 136.777344 177.890625 137.660156 179.777344 C 137.875 180.226562 138.515625 180.234375 138.835938 179.925781 C 140.863281 177.988281 139.828125 174.316406 138.683594 172.175781 C 137.386719 169.769531 134.933594 167.226562 132.050781 167.09375 Z M 316.90625 173.125 C 317.410156 172.703125 317.144531 171.753906 316.511719 171.628906 C 305.894531 169.5 299.886719 191.039062 313.257812 191.0625 C 314.058594 191.0625 314.339844 190.132812 313.871094 189.582031 C 312.945312 188.488281 311.773438 187.78125 310.773438 186.773438 C 308.847656 184.828125 309.023438 181.992188 310.195312 179.660156 C 311.757812 176.546875 314.378906 175.246094 316.90625 173.125 Z M 129.421875 38.613281 C 125.117188 41.453125 121.316406 45.050781 121.523438 50.648438 C 121.648438 54.007812 123.90625 59.519531 128.078125 58.628906 C 128.722656 58.492188 128.902344 57.746094 128.648438 57.230469 C 127.3125 54.472656 124.867188 53.222656 124.988281 49.699219 C 125.113281 46.015625 127.785156 42.28125 130.382812 39.855469 C 131.03125 39.25 130.179688 38.113281 129.421875 38.613281 Z M 202.105469 212.179688 C 198.832031 212.539062 195.816406 214.082031 192.578125 214.746094 C 188.597656 215.558594 184.554688 215.777344 180.511719 215.5 C 179.332031 215.421875 179.066406 217.328125 180.230469 217.574219 C 187.0625 219.035156 197.46875 219.347656 202.894531 214.082031 C 203.535156 213.460938 203.09375 212.074219 202.105469 212.179688 Z M 174.546875 168.421875 C 169.695312 174.582031 166.742188 181.992188 165.625 189.730469 C 165.042969 193.773438 164.574219 198.210938 165.828125 202.175781 C 167.039062 206.019531 170.070312 208.738281 172.203125 212.046875 C 172.703125 212.816406 171.878906 213.601562 171.109375 213.46875 C 161.425781 211.792969 160.015625 199.234375 161.046875 191.421875 C 162.289062 181.984375 165.46875 172.71875 173.371094 166.902344 C 174.34375 166.1875 175.15625 167.648438 174.546875 168.421875 " fill-opacity="1" fill-rule="nonzero"/></svg>